<svg xmlns="http://www.w3.org/2000/svg" width="181" height="88" viewBox="0 0 181 88">
    <g fill="none" fill-rule="evenodd">
        <path fill="#B3B3B3" d="M95.6 15.9c-.3 0-.2-.2-.2-.3h-2.3v4.5c.1.1 0 .2.1.3.1.1 0 .3-.1.3v38.7c0 2.7-2.2 4.9-4.9 4.9-1.2 0-2.4-.4-3.3-1.3v.1c0 .3-.3.2-.4.2-.1 0-.4.1-.4-.2 0-.3.3-.1.4-.2.1-.1.2 0 .3 0l-.1-.1c-.9-.9-1.4-2-1.4-3.3h-.1c-.1 0-.2 0-.2-.1s0-.2.2-.2v-12c-.2 0-.2-.2-.2-.4s.1-.4.2-.4v-1.9c-.1-.1-.2-.1-.2-.2s0-.1.1-.2h.1V15.5h-8.4v1.9c.3 0 .1.2.2.3.1.1.1.4-.2.4v4.5h.2s.4-.1.3.2c-.1.3-.1.2-.3.2h-.2v5.7c.2 0 .6.1.6-.3 0-.1.3 0 .3 0 0 .3.6.3.5.8 0 .1.1.3-.1.3s-.2-.1-.3-.2c-.1-.1-.2-.1-.2-.1h-.8v3.4c.2 0 .2.2.2.4s0 .3-.2.4V48c.1 0 .2 0 .2.2s-.1.2-.2.2v11.3c0 1.6.3 3.2.8 4.6h.1c.1 0 .2.1.2.2v.4c.7 1.6 1.7 3.1 2.9 4.3.7.7 1.5 1.3 2.4 1.9.1 0 .1-.1.2-.1.2 0 .1-.2.1-.2s.1-.2.2-.2.2.1.1.2.1.5-.2.6c5.3 3 12 2.1 16.4-2.2 2.6-2.5 4.1-6 4-9.6V27.1c-.2.1-.2.3-.4.4-.1 0-.1 0-.2-.1v-.3c0-.1-.1-.2.1-.3h.5v-4.9h-.2s-.3.1-.3-.1.2-.2.3-.2h.2v-6h-6.3c.1 0 .2.3-.1.3zM81.9 50.7c0-.3.2-.2.4-.2s.4-.1.4.2c0 .3-.3.2-.4.2-.1 0-.5.2-.4-.2zm.3 2.3c0 .1 0 .2-.2.2s-.2-.1-.2-.2 0-.2.2-.2.2.1.2.2zm.8-27.5c-.1.2-.4.1-.6.1-.2 0-.1-.2-.2-.3-.1-.1-.1-.3.2-.4.3-.1.3 0 .3.2 0 0 0 .1.1.1.1.1.3.1.2.3zm.4 38.7v.6c0 .1-.1.1-.2.1-.2-.2-.4-.3-.5-.5v-.2h.3c.2 0 .3-.1.4 0zm-1-31c-.3 0-.2-.3-.2-.4 0-.1-.1-.4.2-.4.3 0 .2.2.3.4.1.2.1.4-.3.4zm-.2-2.8c0-.2 0-.3.2-.2.2.1.2 0 .2.2s-.1.2-.2.2-.2 0-.2-.2zm.5-10.4c.1 0 .4-.1.4.1s-.3.1-.4.2c-.1-.1-.4.1-.4-.2 0-.3.2-.1.4-.1zm0 2.6c.1.1.4-.1.4.2 0 .3-.3.2-.4.2-.1 0-.4.1-.4-.2 0-.3.2-.1.4-.2zm-1.9 4c.2-.2.3-.4.5-.5h.2v.3c0 .1.1.3-.1.3h-.6v-.1zm.1 9.6h.2v.3c0 .1.1.3-.1.3-.2.1-.4.1-.6 0 0 0-.1-.2 0-.2.2 0 .4-.2.5-.4zm0 3.5c-.3 0-.1-.3-.2-.4-.1-.1-.1-.4.2-.4.3 0 .2.2.2.4s.2.3-.2.4zM79.6 18s0-.1 0 0c0-.4-.1-.7.4-.6.2 0 .4-.1.4.2 0 .3.2.6-.3.6H80s0 .4-.3.3c-.3-.1 0-.3-.1-.5zm.4 1.7c.3-.1.4.1.4.4 0 .3-.2.3-.4.3s-.4-.1-.4-.4c0-.3.2-.4.4-.3zM79.6 33c0-.1.1-.1.2-.1.2.2.4.4.6.5v.2h-.3c-.4 0-.6-.3-.5-.6zm0 4.8c.1 0 .4-.1.3.2-.1.3-.2.2-.3.2-.1 0-.4.1-.4-.2 0-.3.3-.2.4-.2zm.4 2.6c0 .1.1.3-.2.3-.3 0-.2-.2-.2-.3 0-.1-.1-.4.2-.4.3 0 .1.3.2.4zm-.5 18.1c-.3 0-.1-.2-.2-.3-.1-.1-.1-.4.2-.4.3 0 .2.2.2.3 0 .1 0 .4-.2.4zm0 7.5c-.2.1-.4.1-.6 0 0 0-.1-.2 0-.2.2-.1.4-.3.5-.5h.2v.3c0 .2.1.3-.1.4zm.4-22.7c0 .1-.2.1-.2 0l-.5-.5c0-.1 0-.1.1-.2h.3c.1 0 .3-.1.4.1 0 .3 0 .4-.1.6zm-.7-18.8c-.1.2-.3.1-.5.1s-.1-.2-.2-.3c-.1-.1-.1-.3.1-.4.2-.1.2.1.2.3v.1c.3-.1.5-.1.4.2zm-.3-3.1c0-.1 0-.2.2-.2s.2.1.2.2 0 .2-.2.2-.2-.1-.2-.2zm0-5.1c.1 0 .3-.1.3.2 0 .3-.2.1-.4.2s-.4.1-.4-.2c0-.3.4-.3.5-.2zm-.4 2.6h.5c.2 0 .2.1.2.2s0 .2-.2.2c-.4.1-.5 0-.5-.4h-.6c-.1 0-.2 0-.2-.2s.1-.2.2-.2.7-.2.6.4zm-1.9 14c0-.2-.1-.4.2-.4.2 0 .5-.2.5.3 0 .2.1.2.2.2s.1.1.1.2-.1.2-.2.2h-.7c-.2-.2 0-.4-.1-.5zm.7-5.3c.2 0 .4-.1.3.2-.1.3-.3.1-.4.2-.1.1-.2 0-.2-.3s.3-.1.3-.1zm-.3-2.5c0-.3.2-.1.4-.2s.4-.1.4.2c0 .3-.2.1-.4.2s-.4.1-.4-.2zm.3-2.1c-.2 0-.4 0-.4-.3s0-.5.3-.4c.3.1.4 0 .4.3s0 .4-.3.4zm-.2 6.8c.2-.1.2.1.2.2v.1c.3 0 .4.2.3.4-.1.2-.3.1-.5.1s-.1-.3-.2-.4c.1-.2 0-.3.2-.4zm.6 5.5c0 .2-.1.2-.2.2s-.1 0-.1.1 0 .4-.3.3c-.3-.1-.1-.4-.1-.6 0-.2.2-.2.4-.2s.3-.1.3.2zm-.7 10c.1 0 .4-.1.4.2 0 .3-.2.2-.4.2s-.3.1-.3-.2c0-.3.1-.2.3-.2zm0 2.6c.1 0 .3-.1.3.2 0 .3-.2.2-.4.2s-.4.1-.4-.2c0-.3.4-.2.5-.2zm0-9.6c0-.1 0-.1.1-.2h.3c.2 0 .4.2.4.4 0 .1 0 .1-.1.2s-.2.1-.2.1c-.1-.2-.4-.3-.5-.5zM78.1 49c.1.1.4-.1.4.2 0 .3-.3.2-.4.2-.1 0-.4.1-.4-.2 0-.3.3-.1.4-.2zm-.4-31.6h.3c.1 0 .2.1.2.2s0 .2-.1.2c-.2 0-.4.1-.4.3 0 .1-.2.1-.3-.1-.2-.3 0-.6.3-.6zm-1.6 4.2c-.2 0-.2-.1-.2-.2s0-.2.2-.2h.5c.2 0 .3 0 .3-.2s.1-.1.2-.1.1.1.1.2c.1.6.1.6-.8.6l-.3-.1zm-.4 19.9c.2 0 .2.1.2.2s0 .2-.2.2-.3 0-.2-.2c.1-.2 0-.2.2-.2zm0 7.6c.1 0 .2 0 .2.2s0 .2-.2.2-.3 0-.3-.2.1-.3.3-.2zm.2 8.2c0 .1-.2.1-.2.1s-.2 0-.2-.1 0-.4-.3-.3c-.1 0-.1-.1-.1-.2.1-.2.3-.1.4-.1.1 0 .3-.1.4.1v.5zm-.4-2.6c-.3 0-.4 0-.4-.4s.1-.4.4-.4c.3 0 .4 0 .4.4s-.2.4-.4.4zm.3-10.2c-.1 0-.4.1-.4-.2 0-.3.3-.1.4-.2.1.1.4-.1.4.2 0 .3-.2.2-.4.2zM77 63.6c0 .2-.2.1-.3.1v.6c0 .2 0 .2-.2.2s-.2-.1-.2-.2-.2-.7.3-.6v-.6c0-.2 0-.1.1-.1h.3v.6zm-.2-2.5c-.3 0-.1-.2-.2-.4s-.1-.4.2-.4c.3 0 .2.2.2.3 0 .1.1.5-.2.5zm.3-10.1c-.3 0-.6 0-.5-.4 0-.1-.1-.3.1-.4.2-.1.3.1.3.2s.1.1.2.1.1.2.2.3c.1.1-.2.2-.3.2zm.4 5.2c-.2 0-.1-.2-.1-.3 0-.5 0-.5.4-.5.1.1.3-.1.4.2.1.3-.1.2-.3.2-.2 0-.2.1-.2.2s-.1.2-.2.2zm.4 8.4c-.1 0-.2 0-.2-.2s.1-.2.2-.2.2 0 .2.2 0 .1-.2.2zm.2-9.9c-.3 0-.4-.1-.4-.4 0-.3.2-.4.4-.3.2.1.4.1.4.4 0 .3-.2.2-.4.3zm.4-2.4c0 .1-.2.2-.2.1-.1-.2-.4-.3-.6-.5 0 0 0-.2.1-.2h.3c.4 0 .5.2.4.6zm.2-25.5c-.3 0-.1-.2-.2-.3-.1-.1-.1-.4.2-.4.3 0 .2.2.2.4s.1.3-.2.3zm.9 41.8c-.1.2-.3.1-.5.1s-.2-.2-.2-.4-.1-.3.1-.4c.2-.1.2.1.2.3v.1c.4-.1.5 0 .4.3zm.1-20.3c-.2 0-.1.1-.1.2s0 .2-.2.2-.2-.1-.2-.2v-.8c0-.2 0-.2.1-.2s.3-.1.3.1.3.2.3.3c0 .1.1.3-.2.4zm.1-3.7c-.3 0-.2-.3-.2-.5s-.1-.4.2-.3c.3.1.1.3.2.4-.1.1.1.3-.2.4zm.1-8.4c0 .1-.2.1-.3-.1-.1-.3 0-.6.4-.6h.3c.1 0 .1.1.1.2s0 .2-.1.2c-.2-.1-.3 0-.4.3zm.7 28.7c-.3 0-.2-.2-.2-.3 0-.1-.1-.4.2-.4.3 0 .2.2.2.4s.1.3-.2.3zm0-2.6c-.3 0-.1-.3-.2-.4.1-.2-.1-.4.2-.4.3 0 .1.3.2.4.1.1.1.3-.2.4zm-.2-5.1c0-.1 0-.2.2-.2s.2.1.2.2 0 .2-.2.2-.2-.1-.2-.2zm.4-2.5c-.1 0-.4.1-.3-.2.1-.3.2-.1.3-.2.1-.1.4-.1.4.2 0 .3-.3.2-.4.2zm0-2.6c-.1 0-.4.1-.4-.2 0-.3.2-.1.4-.2s.4-.1.3.2c-.1.3-.2.1-.3.2zm0-4.9c-.3 0-.4-.2-.3-.4.1-.2.2-.3.4-.3.4 0 .3.2.3.4s-.2.2-.4.3zm.4-5.4c0 .2-.2.1-.3.2-.1.1-.3.1-.4-.2-.1-.3 0-.3.2-.3h.1c.1-.2 0-.4.3-.3.3.1 0 .3.1.6zm0-10.1c-.1 0-.4.1-.4-.2 0-.3.2-.1.4-.2s.4-.1.3.2c-.1.3-.2.2-.3.2zm0-2.2c-.2 0-.5 0-.4-.4-.1-.3 0-.4.3-.4s.4.1.4.4c0 .3 0 .4-.3.4zm.1-10.2c-.3 0-.2-.3-.2-.4 0-.1-.1-.4.2-.4.3 0 .1.3.2.4-.1.1.1.4-.2.4zm.2-2.3c0-.2.1-.4-.3-.4-.1 0-.1-.1-.1-.2s0-.1.1-.1c.2 0 .5-.2.6.3 0 .1.4.2.3.4 0 .3 0 .5-.3.5s-.3-.2-.3-.5zm.4 23.1c0-.1.2-.1.2-.1.2.2.4.4.6.5v.2h-.3c-.5 0-.7-.3-.5-.6zm.1 16.1c-.3 0-.2-.2-.2-.3 0-.1-.1-.4.2-.4.3 0 .1.2.2.4s.1.3-.2.3zm.4-3.8c-.1 0-.2 0-.2-.2s.1-.2.2-.2.2 0 .2.2 0 .2-.2.2zm.4 17.4c-.3 0-.1-.2-.2-.3-.1-.1-.1-.4.2-.4.3 0 .2.2.2.4s.1.3-.2.3zm.4-1.1c-.2 0-.2-.1-.2-.2s0-.2.2-.2.2.1.2.2 0 .2-.2.2zm.1-1.2s-.2.1-.2 0c-.1-.2-.3-.4-.5-.5v-.2h.3c.1 0 .3-.1.4.1.1.2.1.4 0 .6zm.2-5.2c-.5 0-.5 0-.5-.4.1-.1-.1-.3.2-.4.3-.1.2.2.2.3 0 .1.1.1.2.1s.2.1.2.2-.2.1-.3.2zm1.3 6c-.3 0-.4.1-.3.4.1.3-.1.1-.2.1-.3-.1-.1-.3-.1-.4 0-.3.2-.5.5-.5.1 0 .2 0 .2.1.1 0 .1.1.1.2s-.1 0-.2.1zm-.1-2.3c-.1 0-.2 0-.2-.2s.1-.2.2-.2.2 0 .2.2 0 .2-.2.2zm1 6.4c-.1 0-.3.1-.3-.2 0-.3.2-.2.3-.2.1 0 .3 0 .3.2s-.2.2-.3.2zm.1-7.5c-.3 0-.1-.2-.2-.4s-.1-.3.2-.3c.3 0 .2.2.2.3 0 .1.1.4-.2.4zm1.2 6.4c-.4 0-.2-.3-.2-.4 0-.1-.1-.4.2-.4.3 0 .2.2.2.4s.1.4-.2.4zm.6-5.5c-.1.3-.3 0-.4.1-.1.1-.3.1-.4-.1-.1-.2-.1-.4 0-.6.1-.1.2-.2.3-.1l.1.1c0 .1 0 .2.1.2s.3.2.3.4zm2.1-.2c.3 0 .1.3.2.4.1.1.1.4-.2.4-.3 0-.1-.3-.2-.4 0-.1-.2-.4.2-.4zm0 5.7c-.3 0-.1-.3-.2-.4.1-.2-.1-.4.2-.4.3 0 .2.2.2.4s.1.4-.2.4zm-.2-2.9c0-.1 0-.2.2-.2s.2.1.2.2 0 .2-.2.2-.2 0-.2-.2zm.4-1.3c-.1 0-.4.1-.4-.2 0-.3.2-.1.3-.2.1-.1.4-.1.4.2 0 .3-.2.2-.3.2zm1 5.3c-.1 0-.4.1-.3-.2.1-.3.2-.1.3-.2.1-.1.4-.1.4.2 0 .3-.3.2-.4.2zm.4-2.4c-.1.2-.3.1-.5.1s-.2-.2-.2-.4-.1-.3.2-.4c.3-.1.2.1.2.2s0 .1.1.1.3.2.2.4zm0-2.6c-.1.2-.4.1-.5.1-.1 0-.1-.2-.2-.3-.1-.1-.1-.3.1-.4.2-.1.2.1.2.3v.1c.3-.1.5 0 .4.2zm.5-1.6c0-.3.2-.1.3-.2.1-.1.4-.1.4.2 0 .3-.2.2-.3.2-.1 0-.5.1-.4-.2zm.5 2.9c-.2 0-.2-.1-.2-.2s0-.2.2-.2.2.1.2.2 0 .2-.2.2zM94 23.8c.3-.1.4.1.4.4 0 .3-.5.8-.6.7-.2-.1-.4-.3-.6-.5-.1-.1.5-.6.8-.6zm-.4 30.9c-.2-.1-.4.1-.4-.2 0-.3.2-.2.4-.2s.4-.2.4.2-.3.1-.4.2zm.2-7.5c-.3 0-.2-.2-.2-.4s-.1-.4.2-.4c.3 0 .2.2.2.4s.1.4-.2.4zm.5-12.6c-.1.1-.2.2-.3-.1-.1-.3 0-.2-.2-.2s-.4 0-.3-.2c.1-.2.3-.1.4-.1.1 0 .3-.1.4.1.1.1.1.3 0 .5zm.3-12.3c-.4.1-.5 0-.6-.5 0-.1 0-.3-.1-.3s-.3 0-.3-.3.3-.1.3-.1c.5-.1.5.1.5.4 0 .2-.1.4.2.4.1 0 .1.1.1.2s0 .2-.1.2zm-.2-5.3c-.2 0-.4.1-.4-.2 0-.3.2-.2.3-.2.1 0 .4-.1.4.2 0 .3-.2.2-.3.2zm.9 11.3c-.2 0-.2-.1-.2-.2s0-.2.2-.2.2.1.2.2-.1.2-.2.2zm.7 36.6c-.3 0-.2-.2-.2-.4s-.1-.4.2-.4c.3 0 .2.2.2.4s.1.4-.2.4zm1.5 3.8c-.1 0-.2 0-.2-.2s0-.3.2-.3.2.1.2.2 0 .3-.2.3zm1.4-8.7c-.1 0-.4.1-.4-.2 0-.3.2-.2.4-.2s.3-.1.3.2c0 .3-.2.2-.3.2zm.2-20.4c-.2 0-.2-.1-.2-.2s0-.2.2-.2.2.1.2.2-.1.3-.2.2zm.1-17.7c-.1 0-.4.1-.4-.2 0-.3.2-.2.4-.2s.3-.1.3.1-.1.3-.3.3zm.8 41.8c-.1 0-.4.1-.4-.2 0-.3.2-.1.4-.2s.4-.1.4.2c0 .3-.3.2-.4.2zm1.5-1.3c0 .3-.2.2-.4.2s-.3.1-.4-.2c-.1-.3.1-.2.2-.2s.1 0 .1-.1 0-.4.3-.3c.4.2.2.5.2.6zm0-13c.1.1.4-.1.4.2 0 .3-.2.2-.4.2s-.4.1-.4-.2c0-.3.2-.1.4-.2zm-.5-31.6c.3 0 .2.2.2.3 0 .1.1.4-.2.4-.3 0-.1-.2-.2-.4s-.1-.3.2-.3zm-.2 2.6c.1 0 .4-.1.4.1s-.3.1-.4.2c-.1-.1-.4.1-.4-.2 0-.3.2-.1.4-.1zm-.2 15.4c.1 0 .2 0 .2.2s-.1.2-.2.2-.2 0-.2-.2 0-.1.2-.2zm-.6 14.7c.2 0 .4-.1.4.2 0 .3-.2.2-.3.2-.1 0-.4.1-.4-.2 0-.3.1-.2.3-.2zm-.5-33.9c.2 0 .2.1.2.2s0 .2-.2.2-.2-.1-.2-.2 0-.2.2-.2zm-.6 2.4c0-.1.1-.1.2-.2.4-.1.6 0 .6.4v.9c0 .1 0 .2-.2.2s-.2-.1-.2-.2v-.5c0-.2.1-.5-.3-.5-.2.2-.1 0-.1-.1zm.2 10.1c.3 0 .1.2.2.3.1.1.1.4-.2.4-.3 0-.2-.2-.2-.4s-.1-.3.2-.3zm-.4 27.8c.2 0 .2.1.2.2s0 .2-.2.2-.2-.1-.2-.2 0-.2.2-.2zm-.6-31.7c.1.1.4-.1.4.2 0 .3-.2.2-.4.1s-.4.1-.4-.2c0-.3.3 0 .4-.1zm-.2 2.7c.2 0 .2.1.2.2s0 .2-.2.2-.2-.1-.2-.2 0-.2.2-.2zm0 10.6c.3 0 .2.2.2.4s.1.4-.2.4c-.3 0-.1-.2-.2-.3-.1-.1-.1-.5.2-.5zM97.5 66c.2 0 .2.1.2.2s0 .2-.2.2-.2-.1-.2-.2 0-.2.2-.2zm-.2-17.1c0 .3-.2.1-.4.2s-.4.1-.3-.2c.1-.3.2-.2.3-.2.1 0 .4-.1.4.2zm-.7-19.4c.1-.1-.1-.4.2-.4.3 0 .2.2.2.4s.1.4-.2.4c-.3 0-.1-.3-.2-.4zm.2-3c.3 0 .2.2.2.4s.1.4-.2.4c-.3 0-.1-.2-.2-.3-.1-.1-.1-.5.2-.5zm0-5.4c.3 0 .1.3.2.4-.1.1.1.4-.2.4-.3 0-.2-.3-.2-.4 0-.1-.1-.4.2-.4zm-.3 25.4c.3 0 .2.2.2.3 0 .1.1.4-.2.4-.3 0-.1-.2-.2-.3-.1-.1-.1-.5.2-.4zm0 5.2c.3 0 .2.2.2.4s.1.4-.2.3c-.3-.1-.1-.2-.2-.3-.1-.1-.2-.4.2-.4zm.2 1.3c0 .1 0 .2-.2.2s-.2-.1-.2-.2 0-.2.2-.2.1.1.2.2zm-.4 8.9c.3-.1.4.1.4.4 0 .3-.2.3-.4.3s-.4 0-.4-.4 0-.3.4-.3zM95.8 18c-.1.1-.2.1-.2.1-.1-.3-.4-.3-.5-.5 0-.1 0-.1.1-.2h.3c.2 0 .4.2.4.4-.1.1-.1.1-.1.2zm23 55.1c7.5 0 13.6-6.1 13.6-13.6V47.9c-.3 0-.4-.5-.7-.5v-.2c0-.2.4-.4.7-.5v-7.1h-13.7v8.6h4.8v11.2c0 1.3-.5 2.6-1.4 3.5-.9.9-2.2 1.5-3.5 1.4-2.7 0-4.9-2.2-4.9-4.9V28.3c0-1.3.5-2.5 1.4-3.5h-.1c-.3 0-.1-.2-.2-.4s-.1-.4.2-.4c.3 0 .2.2.2.3v.3c.9-.9 2.1-1.4 3.4-1.4 2.8 0 5 2.2 5 5V35h8.9v-6.5c0-3.6-1.4-7.1-4-9.6-.8-.8-1.8-1.6-2.8-2.2.1.1.1.2.1.3 0 .3-.1.4-.4.4-.3 0-.5 0-.4-.4-.1-.4.1-.4.4-.5h.2c-6.6-3.7-14.9-1.3-18.6 5.3-1.1 2-1.7 4.3-1.7 6.6v31.1c-.1 7.6 6 13.7 13.5 13.6zm12.6-32c.3 0 .2.3.2.4 0 .1.1.4-.2.4-.3 0-.1-.3-.2-.4-.1-.1-.1-.4.2-.4zm-1.4 8.7c.1 0 .2 0 .2.2s-.1.2-.2.2-.2 0-.2-.2.1-.2.2-.2zm-2.4-8.7h.7l.1.1c-.2.2-.3.5-.5.6-.2.1-.3-.2-.3-.4s-.2-.2 0-.3zm-.3 18.5c.3 0 .1.2.2.3.1.1.1.4-.2.4-.3 0-.2-.2-.2-.4s-.1-.3.2-.3zm-.5 2.7h.3c.1 0 .3-.1.4.1v.6c0 .1-.2.1-.2.1-.1-.2-.4-.3-.5-.5-.1-.2-.1-.3 0-.3zm-2.3 5.2c.1.1.4-.1.4.2 0 .3-.2.2-.4.2s-.4.1-.4-.2c0-.3.2-.1.4-.2zm-3.7 3.8c.1 0 .4-.1.4.2 0 .3-.3.1-.4.2-.1-.1-.4.1-.4-.2 0-.3.2-.2.4-.2zm-1.6 1.1c.1.1.4-.1.4.2 0 .3-.2.2-.4.2s-.3.1-.3-.2c0-.3.2-.1.3-.2zm-2.5-7.9h.6c.1 0 .1.1.1.2-.2.2-.3.4-.5.5h-.2v-.4c-.1 0-.2-.2 0-.3zm-.1 5.6c-.1-.4.2-.3.4-.3.4 0 .3.2.3.4s-.2.3-.4.3-.3-.2-.3-.4zm-1.5-1.8c0-.1.1-.1.2-.1s.2 0 .2.1c0 .2.1.4.3.4.1 0 .1.2-.1.3-.4.1-.6 0-.6-.4v-.3zm12.5-46.4h.7c.1 0 .1.1.1.1-.2.2-.4.4-.6.5-.3 0-.2-.2-.2-.3 0-.1-.2-.2 0-.3zM126 24c0 .3-.3.2-.4.2-.1 0-.4.1-.4-.2 0-.3.3-.1.4-.2.1-.1.4-.1.4.2zm-.8-6.2c.1.1.4-.1.4.2 0 .3-.2.2-.4.2s-.4.1-.4-.2c0-.3.3-.2.4-.2zm-2.6 1.5c.3 0 .3.1.3.4 0 .3-.1.4-.4.4-.3.1-.4-.1-.4-.4 0-.3.2-.4.5-.4zm-3.6-3.8c.3 0 .1.3.2.4.1.1.1.3-.2.3-.3 0-.1-.3-.2-.4-.1-.1 0-.3.2-.3zm-9.5 19.2c-.1 0-.2 0-.2-.2s.1-.2.2-.2.2 0 .2.2 0 .2-.2.2zm.6 34c-.2 0-.4.1-.4-.2 0-.3.2-.2.3-.2.1 0 .4-.1.4.2 0 .3-.1.2-.3.2zm1.7-1.2c-.1 0-.2 0-.2-.2s.1-.2.2-.2.2 0 .2.2 0 .2-.2.2zm-.2-5.1c0-.2.1-.2.3-.2.2 0 .2 0 .2.2s-.1.2-.2.2-.3 0-.3-.2zm2.2-38.7c0 .1-.1.1-.2.1s-.2 0-.2-.1c0-.2-.1-.4-.3-.4-.1 0-.1-.2.1-.3.3-.1.6 0 .6.4.1.1.1.2 0 .3zm-.1-2.6c-.3 0-.2-.2-.2-.4s-.1-.4.2-.4c.3 0 .2.2.2.4s.1.4-.2.4zm-.2-3.4c.3 0 .4.1.4.4v.5c0 .2-.2.2-.2.2-.1-.3-.5-.3-.5-.8-.1-.2 0-.2.3-.3zM113 71c.3 0 .2.2.2.3 0 .1.1.4-.2.4-.3 0-.1-.2-.2-.4s-.1-.4.2-.3zm-1.1-16.3c.2 0 .2.1.2.2s-.1.2-.3.2c-.2 0-.2-.1-.2-.3 0-.2.2-.1.3-.1zm-.5 5.4c.1 0 .2 0 .2-.1s.1-.3.3-.2c.2.1.1.2.2.3V60.7c0 .2 0 .2-.2.2-.3-.1-.5-.3-.6-.5 0-.3 0-.4.1-.3zm-.9-14.4c.1 0 .4-.1.4.2 0 .3-.2.1-.4.2s-.4.1-.3-.2c.1-.3.2-.3.3-.2zm-.1 12.5c.3 0 .2.2.2.4s.1.3-.2.3c-.3 0-.2-.2-.2-.3 0-.1-.1-.5.2-.4zm-.7-38.9c.2.1.4-.1.4.2 0 .3-.3.2-.4.2-.1 0-.4.1-.4-.2 0-.3.3-.1.4-.2zm-.1 2.7c.1 0 .2 0 .2.2s-.1.2-.2.2-.2 0-.2-.2.1-.3.2-.2zm-3.6 9.3c0 .1-.2.1-.2 0-.1-.2-.3-.4-.5-.5v-.2h.3c.1 0 .3-.1.4.1v.6zm.6 26.1c-.2 0-.2-.1-.2-.2s0-.2.2-.2.2.1.2.2-.1.2-.2.2zm.3-21.6c-.3 0-.2-.2-.2-.4s-.1-.3.2-.3c.3 0 .1.2.2.3.1.1.1.5-.2.4zm1.2 10.6c-.2 0-.2-.1-.2-.2s0-.2.2-.2.2.1.2.2-.1.3-.2.2zm.2-12.8c-.1 0-.3.1-.3-.2 0-.3.2-.1.3-.2.1-.1.4-.1.4.2 0 .3-.3.2-.4.2zm.4 31.3h.3c.1 0 .3-.1.4.1v.6c0 .1-.2.1-.2.1l-.5-.5c-.1-.1-.1-.2 0-.3zM71.4 53c0-.2.1-.2.1-.2v-.2c-.2-1.2-.5-2.3-.9-3.4 0 .2-.2.3-.4.3s-.3-.1-.3-.4c0-.3 0-.5.3-.3h.2c-.2-.6-.5-1.2-.8-1.8-.7-1.3-1.7-2.3-2.9-3.2-.1 0-.2 0-.2-.2-.5-.4-1.1-.7-1.7-.9 1.2-.5 2.2-1.3 3-2.2.6-.7 1.1-1.5 1.6-2.3-.2 0-.1-.2-.1-.3 0-.1-.1-.4.2-.3.3.1.2.1.2.2.5-1.2.8-2.4 1-3.6v-.1c.1-.9.2-1.8.2-2.6s0-1.5-.1-2.2c-.1-.1-.1-.1-.1-.2V29c-.2 0-.3 0-.3-.3s.2-.1.2-.1h.1c0-.2 0-.4-.1-.5-.1.1-.2.1-.3.1H70c-.3 0-.4 0-.4-.4s.1-.4.4-.4h.3c-.1-.7-.3-1.3-.5-2 0-.1-.1-.2-.1-.3-.1.1-.2 0-.3 0-.1 0-.4.1-.4-.2 0-.3.2-.1.4-.2h.2c-.4-1.1-.8-2.1-1.4-3h-.1c-.3 0-.1-.3-.2-.4-.2-.3-.5-.6-.7-.9 0 .1 0 .2-.2.2s-.2-.2-.2-.4V20l-.8-.8c0 .6 0 .7-.5.6-.1 0-.2 0-.2-.1s0-.2.1-.2c.4 0 .2-.2.3-.4v-.2c-.2-.2-.5-.4-.8-.6-1.3-.8-2.6-1.5-4.1-1.9h-.3s-.1 0-.1-.1c-1.5-.4-3.1-.6-4.7-.6H42.9v10.2h.4c.2 0 .2.1.2.2s.1.4-.1.6c-.2.2-.3.1-.3-.1s-.1-.2-.2-.2v21.1l.5.5c0 .1 0 .1-.1.2h-.5v1.9h.4c.3 0 .1.3.2.4.1.1.1.3-.1.3s-.3-.4-.3-.6v-.1h-.1V52c.3 0 .6 0 .5.5v.3c0 .3 0 .5-.4.5h-.2v4.5h.2c.1 0 .3-.1.4.2.1.3-.2.2-.3.2h-.2V60c.3 0 .2.2.2.4s.1.3-.2.3v3h.5c.1 0 .1.2.1.2s0 .2-.1.2-.2 0-.2.1 0 .3-.2.3v3c.3 0 .2.2.2.4s.1.3-.2.3v4.2H45.4c.1 0 .3-.1.5 0H53.3c0-.1-.1-.3.1-.3h.6c.1 0 .1.1.1.2s-.1.1-.1.1h-.6 5.5c1.1 0 2.2-.2 3.2-.5v-.1c0-.3.2-.1.4-.2s.2 0 .3 0c.9-.3 1.8-.8 2.6-1.3 1.9-1.1 3.5-2.8 4.5-4.7 1.4-2.8 2.1-6 2-9.2 0-1.1-.1-2.2-.2-3.3-.2.1-.3.1-.3-.1zm-2.7-3c0-.2 0-.3.2-.3.6 0 .6 0 .6.6v.4c0 .2 0 .2-.2.2s-.2 0-.2-.2-.1-.3-.3-.3c-.2 0-.1-.2-.1-.4zm0 10.5c0-.3.3-.1.4-.2.2.1.4-.1.4.2 0 .3-.1.2-.3.2h-.1c0 .3-.1.4-.4.3-.3-.1 0-.3 0-.5zm0-4.9c0-.2.1-.2.2-.2s.2 0 .2.2-.1.2-.2.2-.3 0-.2-.2zm-1-9.7c.2 0 .2.1.2.3v.1c.1.2.5 0 .3.4-.1.1-.4.1-.4.4h-.2c-.1 0-.1-.1-.1-.2v-.7c.1 0 0-.2.2-.3zm0 2.8c.2 0 .3.1.2.2-.1.1.1.1.1.1.2 0 .4 0 .3.3-.1.3-.3.1-.5.1s-.1-.2-.2-.3c-.1-.1-.1-.3.1-.4zm0 2.6h.6c.1 0 .1.2.1.2l-.5.5c-.1 0-.1 0-.2-.1v-.3c-.1 0-.2-.2 0-.3zm-.5 10.3c0-.1.1-.2.2-.2s.6-.1.5.5c0 .1.1.3-.1.3s-.2-.2-.3-.3c-.1-.1-.1 0-.2-.1s-.1-.1-.1-.2zm.4-2.2c0-.2 0-.2.2-.2s.2.1.2.2 0 .2-.2.2-.2-.1-.2-.2zm-.9-7c.4 0 .1.3.2.4.1.1.1.4-.2.4-.3 0-.2-.3-.2-.5s-.2-.3.2-.3zm.2 3.2c0 .2-.1.2-.2.2s-.2 0-.2-.2.1-.2.2-.2.1.1.2.2zm0 4.8v.2h-.3c-.5 0-.7-.3-.5-.6 0-.1.2-.1.2-.1.1.3.3.5.6.5zm0-9.6s-.1.1 0 0l-.4.1c.1-.4-.5-.4-.4-.7.1-.3.3-.1.4-.1.3 0 .5.2.5.5-.1.1-.1.2-.1.2zm-.5-2.8c0-.2.1-.2.3-.2.2 0 .2 0 .2.2s-.1.2-.2.2-.3 0-.3-.2zm.3-3.2c.3 0 .2.2.2.3 0 .1.1.4-.2.4-.3 0-.2-.2-.2-.4s-.2-.2.2-.3zm-.3 1.2c.1 0 .4-.1.4.1v.7c0 .1-.2.1-.3 0-.2-.1-.4-.3-.5-.5 0 0-.1-.2.1-.3h.3zM65 43.8c.1-.2.3 0 .5-.1.4 0 .7-.1.6.4 0 .1.1.4-.2.4-.3 0-.5.2-.6-.2v-.1c-.3 0-.5-.1-.3-.4zm0 10.3v-.5h.2c0 .3.4.3.5.5.1.2-.1.2-.2.2s-.2 0-.2.2-.1.2-.2.2-.1-.2-.1-.3v-.3zm.4-2c-.3 0-.4-.1-.3-.4.1-.3.1-.3.4-.3.3 0 .3.2.3.4s-.2.2-.4.3zm-.2-3.3c.2.1.6.7.5.9-.1.2-.4.2-.5.5 0 0-.2 0-.2-.2v-1.1c0-.1.1-.2.2-.1zm-.2-2.2c0-.3.2-.2.4-.2s.4-.1.4.2c0 .3-.2.2-.4.2s-.4.1-.4-.2zm0 12.2c.1 0 .3-.1.4.1v.7c0 .1-.1.1-.2.1s-.1 0-.1-.1.1-.3-.1-.3-.3 0-.2-.3c.1-.3 0-.1.2-.2zm-.9-3c-.3 0-.2-.2-.2-.4s-.1-.4.2-.4c.3 0 .2.2.2.4s0 .4-.2.4zm.2 2.1c0 .3-.3.1-.4.2-.1-.1-.4.1-.4-.2 0-.3.3-.2.4-.2.1 0 .3-.1.4.2zm-.4-4.7c-.3 0-.5-.1-.4-.4-.1-.4.1-.4.4-.4.3 0 .4.2.4.5s-.2.3-.4.3zm-1-1.2h-.7c-.2 0-.3-.2-.2-.2.3-.1.3-.6.7-.5.2 0 .4-.1.4.3v.1c.2 0 .4 0 .3.3-.1.3-.3 0-.5 0zm.1 2.1c0 .3-.2.2-.3.2-.1 0-.4.1-.4-.2 0-.3.2-.1.3-.2.1-.1.4-.1.4.2zm-2.8-11.8c.3 0 .1.2.2.4s.1.3-.2.3c-.3 0-.2-.2-.2-.4s0-.3.2-.3zm.5-3.1h-.3c-.1 0-.3.1-.4-.1v-.6c0-.1.2-.1.2-.1l.5.5c.1.1.1.2 0 .3zm.3 4.5c.2 0 .2.1.2.2s0 .2-.2.2-.2-.1-.2-.2 0-.2.2-.2zm-.9 2.9c.2-.2.4-.4.5-.6h.2v.3c0 .5-.3.7-.6.5-.1 0-.2-.2-.1-.2zm.7-1.6c.1-.2.4 0 .6-.1.2.1.5-.2.6.2 0 .2.1.5-.1.5s-.6.3-.7-.2c-.2-.2-.5-.1-.4-.4zM62 32.9h.6c.2 0 .2.1.1.2-.1.2-.3.4-.5.5-.1 0-.2 0-.2-.1v-.6c-.2 0-.5.1-.5-.2 0-.3.1-.2.2-.2s.3.1.3.4c0-.1 0-.1 0 0zm-.2-2.7c-.2 0-.2 0-.2-.2s.1-.1.3-.2c.2-.1.2 0 .2.2s-.3.1-.3.2zm1.3-3.7c-.1-.1-.4.1-.4-.2 0-.3.2-.2.4-.2s.4-.1.3.2c-.1.3-.2.1-.3.2zm.3 1.6c0 .1 0 .2-.2.2s-.2-.1-.2-.2 0-.2.2-.2.2.1.2.2zm-.3.6c.1 0 .4-.1.4.2 0 .3-.2.1-.4.2s-.4.1-.3-.2c.1-.3.1-.2.3-.2zm0 1.5c.2 0 .4-.1.4.2 0 .3-.2.2-.3.2-.1 0-.4.1-.4-.2 0-.3.1-.2.3-.2zm.7 4.5c.2 0 .5-.1.4.3 0 .1 0 .1.1.1.2 0 .2.1.2.2s-.2.1-.3.1c-.5.1-.4.2-.4-.7-.5.2-.7-.2-1-.4v-.2c0-.1.1-.1.2-.1h.7c.2 0 .2.1.2.2s0 .3-.1.5zm.5-12.4h.6c.1 0 .1.2.1.2-.2.1-.3.3-.5.5h-.2v-.4c-.1-.1-.1-.2 0-.3zm.3 4.9c.1.2.1.4 0 .6-.1.1-.2.1-.3-.1-.1-.2 0-.2-.2-.2s-.4 0-.3-.2c.1-.2.3-.1.4-.1.1 0 .3-.1.4 0zm-.4 5.4c0-.1 0-.2.2-.2s.2.1.2.2 0 .2-.2.2-.2 0-.2-.2zm-.2 13c-.3 0-.2-.2-.2-.3 0-.1-.1-.4.2-.4.3 0 .2.2.2.4s.1.3-.2.3zM62.7 49c.3 0 .4.1.4.4 0 .3-.1.3-.4.3-.3 0-.4 0-.4-.4 0-.2.1-.2.4-.3zm-.2-11.7c.3 0 .2.2.2.4s.1.4-.2.4c-.3 0-.2-.2-.2-.4s-.1-.3.2-.4zm-.1 6c.2-.1.3.1.3.2s.1.1.2.1.1.2.2.3c.1.1-.1.2-.2.2-.3 0-.6 0-.5-.4 0-.1-.2-.3 0-.4zm.3-1.4v.6c0 .2 0 .1-.1.1h-.2V42c0-.2.2-.1.3-.1v-.6c0-.2 0-.2.2-.2s.2.1.2.2.2.7-.4.6zm-.7-6.6c0 .2-.1.2-.2.2s-.2 0-.2-.2.1-.2.2-.2.2.1.2.2zm-.4 2.1c.1 0 .3-.1.4.1v.6c0 .1-.2.1-.2.1s-.2 0-.2-.1 0-.2-.1-.2-.3 0-.3-.2.2-.2.4-.3zm.4 2.8c0 .3-.3.2-.4.2-.1 0-.4.1-.4-.2 0-.3.3-.1.4-.2.1.1.4-.1.4.2zm-.8 7.1c.1-.2.4-.1.6-.1.2 0 .2.1.2.2v.6c0 .1-.1.2-.3.2-.2 0-.7-.7-.5-.9zm2.6 3.2c-.3 0-.4 0-.4-.4s.1-.4.4-.4c.3 0 .4 0 .4.4s-.2.4-.4.4zm.5-2.4c0 .2-.2.1-.3.2-.1.1-.2-.1-.2-.2 0-.5 0-.5.4-.5.1 0 .3-.1.4.1.1.2-.1.2-.3.3-.2.1-.1 0 0 .1zm.2-17.5c-.3 0-.1-.3-.2-.4.1-.2-.1-.4.2-.4.3 0 .1.3.2.4.1.1 0 .4-.2.4zm.3-6.8c-.2 0-.2-.1-.2-.2s0-.2.2-.2.2.1.2.2-.1.2-.2.2zm.9 18c0 .1 0 .1-.1.1s-.2 0-.2-.1 0-.4-.3-.4c-.1 0-.1-.2 0-.3.2-.1.5-.1.6.1 0 .1.1.2.1.3-.1.1-.1.2-.1.3zm-.2-7.4c-.3 0-.2-.2-.2-.4s-.1-.3.2-.3c.3 0 .2.2.2.4s.1.2-.2.3zm-.1-5.6h.6c.1 0 .1.1.1.2-.2.2-.3.4-.5.5h-.2v-.3c-.1-.3-.1-.4 0-.4zm1.2 11.6c-.1 0-.2 0-.2-.2s.1-.2.2-.2.2 0 .2.2-.1.2-.2.2zm.6-5c-.1.2-.7 0-.8-.2-.1-.2-.1-.1-.2-.1-.4-.1-.2-.4-.2-.7 0-.3.2-.1.3-.1.4-.1.5 0 .5.4s-.1.4.3.4c.1.1.1.3.1.3zm-.5-3c.2 0 .2.1.2.2s-.1.2-.3.2c-.2 0-.2-.1-.2-.3 0-.2.2-.1.3-.1zm-.3-5.7c0-.2.1-.2.2-.2s.2 0 .2.2-.1.2-.2.2-.2-.1-.2-.2zm.8 4c-.3 0-.4-.1-.4-.4 0-.3 0-.4.4-.4s.4.2.4.4 0 .3-.4.4zm2.3 4.8c-.1 0-.3.1-.3-.2 0-.3.2-.2.3-.2.1 0 .4-.1.4.2 0 .3-.3.2-.4.2zm.2-5.7c.3 0 .2.3.2.4 0 .1.1.4-.2.4-.3 0-.1-.3-.2-.4-.1-.1-.2-.4.2-.4zm-.3 2.6c.1 0 .3-.1.4.1v.7c0 .1-.1.1-.2.1s-.6-.5-.6-.7c.1-.3.3-.1.4-.2zm-.6 2c.1 0 .3 0 .3.2s-.3.1-.4.2c-.5 0-.8-.4-.8-.8 0-.1.1-.2.2-.2h.1c0 .3.4.3.4.6.1-.1.1-.1.2 0zm-.7-3.4c.2 0 .2.1.2.3v.1c.2 0 .4.1.3.3-.1.2-.4.1-.5.1-.1 0-.1-.2-.2-.3-.1-.1-.1-.5.2-.5zm-.2-2.1c0-.3.2-.1.4-.2s.3-.1.3.2c0 .3-.2.2-.3.2-.1 0-.4.1-.4-.2zm0-5.4c.1-.2.3-.1.5-.1s.1.3.2.4c-.1.1.1.4-.1.4s-.2-.1-.2-.2v-.1c-.3-.1-.5-.2-.4-.4zm-.7 2.8c0-.1.1-.1.2-.1s.6.1.5-.4c0-.1.1-.1.2-.1s.2 0 .2.1v.5c0 .2.1.4-.1.5-.3.1-.6.1-.9 0-.2-.1-.1-.4-.1-.5zm-.4-4c.1 0 .4-.1.4.2 0 .3-.3.1-.4.2-.2-.1-.4.1-.4-.2 0-.3.3-.2.4-.2zm-.1 3.4c.1.1.1.2.1.3 0 .1-.1.2-.2.2H66c0 .7-.2.9-.9.7-.1 0-.2-.1-.2-.2s0-.1.1-.2h.1c.3 0 .6.1.6-.3h.3c-.1-.2.1-.5.3-.6.2-.1.3-.1.4.1zm-.9-4.6c.2 0 .2.1.2.2s0 .2-.2.2-.2-.1-.2-.2.1-.2.2-.2zm-.1 2.3c.1 0 .3-.1.3.1s.1.5-.1.6c-.2.1-.3 0-.3 0 .1-.4-.7-.3-.3-.7.1-.1.3 0 .4 0zm-.6-3c.3 0 .2.2.2.3 0 .1.1.4-.2.4-.3 0-.1-.2-.2-.4s-.1-.3.2-.3zm-.8-.7h.6c.1 0 .1.1.1.2-.2.2-.3.4-.5.5h-.2v-.3c-.1-.2-.1-.4 0-.4zm-.3 4.1c.1 0 .2 0 .2.2s-.1.2-.2.2-.2 0-.2-.2 0-.2.2-.2zm-1.3-3c0-.2.2-.1.2-.1s.5-.1.5.3l.1.1c.2 0 .3.1.2.3-.1.2-.2.1-.3.1-.2 0-.4 0-.4-.3 0-.1-.1-.2-.2-.2s-.1 0-.1-.2zm0 2.5h.2c.5 0 .6.2.5.7 0 .1-.1.1-.1.1s-.3 0-.3-.1c0-.3-.2-.2-.3-.3-.1-.1-.4.1-.4-.2 0-.3.3-.1.4-.2zm-.7-1c.1 0 .3-.1.3.1s-.2.2-.3.3c-.1.1 0 .1 0 .2s-.2.1-.3.1c-.1 0-.2-.1-.2-.2s-.1-.6.5-.5zm.3 2.8c0 .3-.3.2-.4.1-.1-.1-.4.1-.4-.2 0-.3.3-.1.4-.2.1-.1.4 0 .4.3zm-.8 2.3c0-.3.2-.1.4-.2.2.1.4-.1.4.1s-.1.2-.3.2h-.1c0 .2-.1.4-.3.3-.2-.1-.1-.3-.1-.4zm-.7-6.3c.2 0 .4-.1.4.2 0 .3-.2.2-.4.2s-.4.1-.4-.2c0-.3.2-.2.4-.2zm-.5 2.3c.3 0 .6 0 .5.4 0 .1.1.3-.1.4-.2.1-.3-.1-.3-.2s-.1-.1-.2-.1-.1-.2-.2-.3c-.1-.1.2-.2.3-.2zm-.6-1c0 .3-.2.2-.4.2s-.4.1-.4-.2c0-.3.3-.1.4-.2.1-.1.4 0 .4.2zm-1.5-4.3c.3 0 .3.1.3.4 0 .3-.1.4-.4.4-.3 0-.3-.1-.3-.4 0-.3.2-.4.4-.4zm-.3 2.7c.1 0 .3-.1.3.1s.2.2.4.2c0-.1-.1-.3.1-.3h.6c.1 0 .1.1.1.2s-.1.1-.1.1h-.6c0 .5-.1.5-.5.5-.2 0-.2-.1-.2-.2s-.3-.5-.1-.6zm-.1 3c0-.2.1-.4.3-.5.1 0 .2 0 .3.1.1 0 .1.1.1.2-.1.2-.3.5-.5.6-.3 0-.1-.3-.2-.4zM56 16.6c.2 0 .2.2.2.3 0 .1.3.1.4.1.1 0 .3-.1.3.1.1.2.1.4 0 .6-.1.1-.3.1-.3-.1s-.2-.3-.3-.2c-.3 0-.5-.1-.4-.5.1 0-.1-.3.1-.3zm.6 2.7c.3 0 .3.1.3.4 0 .3 0 .3-.3.3s-.4-.1-.3-.4c.1-.3.1-.3.3-.3zm-1.4-1.1c0-.1.1-.1.2-.1.2.2.4.3.5.5v.2h-.3c-.1 0-.3 0-.3-.1-.1-.1-.1-.3-.1-.5zm.2 4.8c.3 0 .2.2.2.4s.2.4-.2.4-.1-.3-.2-.4c-.1-.1-.1-.4.2-.4zm-1.2-3.7c.3 0 .2.2.2.4s.1.4-.2.4c-.3 0-.2-.3-.2-.5s-.1-.3.2-.3zm-1.7-1.1c0-.1.1-.1.2-.1.2.1.5.3.6.5 0 .3-.3.1-.4.2-.2 0-.4-.1-.5-.4 0 0 0-.1.1-.2zm.4 2.7c0 .2-.1.2-.2.2s-.2 0-.2-.2.1-.2.2-.2.2.1.2.2zm-.8 8v-4.7h.9c-.5 0-.7-.2-.5-.7.1-.3.3-.1.5-.1s.3 0 .3.2v.6c.2-.1.3-.1.5 0h2c1.1 0 2.2.3 3.2.9 0-.3.3-.1.4-.2.1-.1.4-.1.4.2 0 .3-.3.1-.4.1h-.1c.2.2.5.4.7.6.1.1.2.2.2.3 0 .1 0 0 0 0h.3c.1 0 .3-.1.4.1v.6c0 .1-.2.1-.2.1l-.1-.1c.7 1.2 1.1 2.5 1.1 3.9.1.1.4-.1.4.2 0 .3-.2.2-.4.2s0 .2 0 .3c0 1.2-.1 2.4-.5 3.6-.2.4-.4.9-.6 1.3.1.1.2.2.3.2.1 0 0 .2-.2.2h-.4c-.3.4-.6.7-1 1 0 .2-.1.2-.2.2-.4.3-.9.5-1.4.7.2.1.3.4.6.5 0 0 .1.3-.2.3h-.8c-.2-.1-.4-.3-.6-.5-.3 0-.6.1-.9.1h-.5c.1.1.4.1.3.3-.1.2-.1.2-.2.2s-.2.1-.2.2-.1.3-.3.3c-.2 0-.2-.2-.2-.3v-.6h-1.8v.1s.1.4-.2.4c-.3 0-.2-.2-.2-.4v-.1h-.3v-5-2.6-1.9c-.2-.4-.2-.6-.1-.7zm5 12.2c.2 0 .6-.3.7.2v.1c.2 0 .4.1.3.3-.1.2-.4.1-.6.2-.2.1-.7.2-.6-.4.1-.1 0-.4.2-.4zm.3 4.9c.3 0 .4.1.4.4 0 .3 0 .5-.4.4-.3.1-.4 0-.4-.4s.1-.4.4-.4zm.4-1.2c0-.2 0-.2.2-.2s.2-.1.2-.2-.1-.2-.2-.2h-.2c-.2 0-.3 0-.3-.2s.1-.2.3-.2h.2c.2 0 .6-.1.5.4.5 0 .2.5.4.7.2.2.4.3.3.6 0 .1 0 .2-.2.2s-.2-.1-.2-.1c-.2-.2-.3-.6-.8-.6 0-.1-.2 0-.2-.2zm.9-6.7c.3 0 .2.2.2.4s.1.4-.2.4c-.3 0-.2-.2-.2-.4s-.1-.4.2-.4zm.6 2.1c0 .3-.2.2-.4.2s-.3.1-.3-.2c0-.3.2-.2.3-.2.1 0 .3-.1.4.2zm-3.4 4.9v-.4c0-.1.1-.2.2-.1.3.2.5.6.5.9-.1.3-.3.1-.4.1-.1 0-.3 0-.3-.2v-.3zm0-2.3c0-.3.2-.2.3-.2.1 0 .4-.1.4.2 0 .3-.2.2-.3.2-.1 0-.4.1-.4-.2zm-.8-1.3c-.1 0-.4.1-.4-.2 0-.3.3-.1.4-.2.1.1.4-.1.4.2 0 .3-.3.1-.4.2zm.1 2.5c0 .2 0 .3-.2.2-.2-.1-.2 0-.2-.2s.1-.2.2-.2.2 0 .2.2zm-1.4-1.3c.3 0 .2.2.2.4s.1.4-.2.4c-.3 0-.2-.2-.2-.4s0-.4.2-.4zm0 2.2c.3 0 .2.2.2.4s.1.3-.2.3c-.3 0-.2-.2-.2-.3 0-.1-.1-.4.2-.4zM52.7 43c-.1 0-.2 0-.2-.2s.1-.2.2-.2.2 0 .2.2-.1.2-.2.2zm-.2 1.2c-.1 0-.3.1-.4-.1v-.7c0-.1.1-.1.1-.1.2.2.5.3.6.5.1.2-.1.4-.3.4zM51.6 17c.3 0 .1.3.2.4.1.1.1.4-.2.4-.3 0-.1-.3-.2-.4-.1-.1-.1-.4.2-.4zm-.4 3.7c.3 0 .2.3.2.4 0 .1.1.4-.2.4-.3 0-.1-.3-.2-.4.1-.1-.1-.3.2-.4zm-.2 19c.1 0 .3-.1.4.1v.6c0 .1-.2.1-.2 0l-.5-.5c0-.1 0-.1.1-.2 0 0 .1-.1.2 0zm.2 3.3c-.2 0-.5.2-.5-.2 0-.2-.1-.1-.2-.1s-.2 0-.2-.1v-.3c.4.2.3-.4.6-.4.1 0 .1.1.1.2s0 .2.1.2c.3 0 .3.2.2.4-.1.2.2.3-.1.3zm-.5 4.6h.3c.1 0 .3 0 .3.1v.6c0 .1-.1.1-.2.1-.2-.2-.4-.3-.5-.5-.1 0-.1-.1 0-.2s.1-.2.1-.1zm0 5.8c0 .2-.1.2-.2.2s-.2 0-.2-.2.1-.2.2-.2.2 0 .2.2zm-1-7.4c.2 0 .2.2.2.3 0 .1.1.2.2.2s.2.1.2.2-.2.1-.3.1c-.3 0-.5 0-.4-.5-.1-.1-.2-.3.1-.3zm.2-1.8c-.2 0-.4.1-.4-.2 0-.3.2-.2.4-.2s.4-.1.4.2c0 .3-.3.2-.4.2zm.3-5.7c0-.1-.1-.2 0-.3.1-.1.2-.1.3 0 .1 0 .1.1 0 .2s-.1.1-.2.1h-.1v.6c0 .2 0 .1-.1.1h-.2v-.6c-.1-.2.1-.1.3-.1zm.8-3.6c0-.1 0-.2.2-.2s.2.1.2.2 0 .2-.2.2-.2-.1-.2-.2zm-.8-14.2c.1 0 .4-.1.4.1.1.2.1.4 0 .7 0 .1-.4.1-.4 0s-.1-.4-.3-.4v-.2c0-.3.2-.1.3-.2zm0 2.7c.2 0 .4-.1.4.2 0 .3-.3.2-.4.2-.1 0-.4.1-.4-.2 0-.3.3-.2.4-.2zm0 2.9c0-.2.1-.2.2-.2s.2 0 .2.2v.6c0 .2 0 .3-.2.3s-.2-.2-.2-.3V26.3zm-.3 9.4c0-.2.7-.3.8-.2.1.1.1.3 0 .3-.6 0-.3.5-.4.8h.1c.1 0 .3-.1.3.2 0 .3-.1.2-.2.2s-.3-.1-.3-.3v-.1c-.2 0-.4.1-.4-.2 0-.3-.4 0-.4-.3s.4-.1.5-.4zm0 20.6v.6c0 .1-.2.1-.2 0-.1-.2-.3-.4-.5-.5v-.2h.3c.1 0 .3-.1.4.1zm-.4 5.2c.2 0 .4-.1.4.2 0 .3-.2.2-.3.2-.1 0-.4.1-.4-.2 0-.3.1-.2.3-.2zm-.4-2.5c0-.3.2-.2.4-.2s.4-.1.4.2c0 .3-.2.2-.4.2s-.4.1-.4-.2zm-.7-27h-.1c-.1 0-.3.1-.3-.2 0-.3.1-.2.2-.2s.2.1.2.4c0-.1 0 0 0 0h.6c.1 0 .1 0 .1.1v.2h-.6c-.1 0 0-.2-.1-.3zm-.4-2c0-.1 0-.2.2-.2s.3 0 .2-.2v-.1c.1-.1.2-.1.2-.1 0 .3.5.3.5.6s-.2.1-.3.1h-.7c0 .1-.1.1-.1-.1zm.8 4.7c.2 0 .4-.1.4.2 0 .3-.2.2-.4.2s-.4.1-.4-.2c0-.3.2-.2.4-.2zm0-12.8c.1 0 .3 0 .3.1v.6c0 .1-.1.1-.2.1-.2-.2-.4-.3-.5-.5V22c.2-.1.3-.1.4-.1zm-1.2-6.1c0-.1-.1-.3.1-.3s.2.1.3.2c.1.1.2.1.3.1.1 0 .1 0 .1.1s0 .2-.1.2h-.7c-.1.1 0-.1 0-.3zm0 7.6c.2 0 .4-.1.4.2 0 .3-.2.2-.4.2s-.4.1-.4-.2c0-.3.2-.2.4-.2zm-.4 38.1c-.1.1.1.4-.2.4-.3 0-.2-.2-.2-.4s-.1-.4.2-.4c.3 0 .2.3.2.4zM47 46c.3 0 .1.3.2.4-.1.1.1.4-.2.4-.3 0-.1-.3-.2-.4-.1-.1 0-.4.2-.4zm.5-1.9c-.1.2-.3.1-.5.1s-.1-.3-.2-.4c-.1-.1-.1-.3.1-.4.2-.1.3.1.3.3 0 0 0 .1.1.1.3-.1.4.1.2.3zm0 4.8c0 .3-.2.2-.4.2s-.4.1-.3-.2c.1-.3.2-.1.3-.2.1-.1.5-.1.4.2zm-.7-7.6c0-.3.2-.2.4-.2s.4-.1.3.2c-.1.3-.2.1-.3.2-.1.1-.3.1-.4-.2zm.4-4.7c-.4.1-.4-.1-.4-.4 0-.3.2-.3.4-.3s.3.1.3.4c0 .3 0 .4-.3.3zm-.4 29.8c.1 0 .3-.1.3.2 0 .3-.2.2-.3.2-.1 0-.4.1-.4-.2 0-.3.3-.2.4-.2zm0-9.8c0-.2-.1-.4.2-.4.3 0 .2.2.2.3 0 .1.1.4-.2.4-.3 0-.1-.2-.2-.3zm0-5c-.1-.2-.1-.4 0-.6 0 0 .2-.1.2 0 .1.2.3.4.5.5v.2h-.3c-.1 0-.3.1-.4-.1zm.7-6.9c0-.3.3-.1.4-.2.1-.1.4-.1.4.2 0 .3-.3.2-.4.2-.1 0-.3.1-.4-.2zm0-16c-.1 0-.3.1-.3-.1s.2-.2.3-.2c.1 0 .4-.1.4.2 0 .3-.2.1-.4.1zm-.3 2.2s.5 0 .3.3-.4 0-.6.1c-.2.1-.5.2-.5-.3 0-.2-.1-.4.2-.4.3 0 .6-.2.6.3zm-1.3 9.5c-.3 0-.2-.2-.2-.4s-.1-.4.2-.4c.3 0 .2.2.2.4s.1.4-.2.4zm-.2 20.3c-.3 0-.4-.1-.4-.4 0-.3.1-.4.4-.3.3-.1.4 0 .4.4s-.2.3-.4.3zm.4 2.1c0 .3-.3.1-.4.2-.1.1-.4.1-.4-.2 0-.3.3-.1.4-.2.2.1.5-.1.4.2zm-.2-15.6c.3 0 .2.2.2.4s.1.4-.2.4c-.3 0-.2-.2-.2-.3 0-.1-.1-.5.2-.5zm-.2-.6c0-.2.1-.2.2-.2s.2 0 .2.2-.1.2-.2.2-.2 0-.2-.2zm0 11.3c0-.2.1-.2.2-.2s.2 0 .2.2-.1.2-.2.2-.2 0-.2-.2zm.2-14.9c-.3 0-.2-.2-.2-.4s-.1-.4.2-.4c.3 0 .2.2.2.4s.1.4-.2.4zm.2-15.5c-.1 0-.4.1-.4-.1s.2-.1.4-.2.4-.1.4.2c0 .3-.3.1-.4.1zm.8-5c0 .3-.2.2-.4.2s-.4.1-.4-.2c0-.3.2-.1.4-.2s.3-.1.4.2zm-.6-.6c-.3 0-.1-.3-.2-.4.1-.2-.1-.4.2-.4.3 0 .1.3.2.4.1.1.1.4-.2.4zm-.2-5.3c.4-.1.4.1.5.4.1.3-.1.4-.4.4-.3 0-.4-.1-.4-.4 0-.3-.1-.5.3-.4zm-1 1.5c.3 0 .2.2.2.4s.1.4-.2.4c-.3 0-.1-.3-.1-.4 0-.1-.2-.4.1-.4zm.2 10.6c0 .3-.1.3-.4.4-.3.1-.3-.1-.3-.4 0-.3 0-.5.3-.4.4 0 .4.2.4.4zM45 23c.4 0 .3.2.3.4s0 .4-.4.4-.4-.1-.4-.4c0-.3.2-.4.5-.4zm-.1 8c.2 0 .4-.1.4.2 0 .3.2.5-.2.6H45s0 .4-.3.3c-.3-.1 0-.3-.1-.5.1-.3-.2-.7.3-.6zm-.1 8.2c-.3 0-.1-.2-.2-.3-.1-.1-.1-.4.2-.4.3 0 .2.2.2.4s.1.3-.2.3zm.2 2.1c0 .1 0 .1-.1.2h-.3c-.1 0-.2.1-.3-.1v-.6c0-.1.2-.1.2-.1 0 .3.4.4.5.6zm-.2-4.7c-.3 0-.1-.2-.2-.4s-.1-.4.2-.3c.3.1.2.2.2.3 0 .1.1.4-.2.4zm-.4-3.4h.3c.1 0 .3-.1.4.1v.6c0 .1-.2.1-.2.1l-.5-.5c-.2-.1-.2-.2 0-.3-.1.1-.1.1 0 0zm.1 19.2c.3 0 .2.2.2.4s.2.4-.2.4-.1-.3-.2-.4c-.1-.1-.2-.4.2-.4zM44 63.8c.1-.1.2 0 .3 0 .1 0 .3-.1.3.2 0 .3.1.4-.1.6-.2.2-.3 0-.3 0 .2-.5-.6-.4-.2-.8zm.3-2.7c.4 0 .3.2.4.4.1.2 0 .4-.3.4s-.5-.1-.4-.4c-.2-.3-.1-.4.3-.4zm-.6-23.3c-.1 0-.2 0-.2-.2s.1-.2.2-.2.2 0 .2.2-.1.2-.2.2zm.4 19.1c.2 0 .2.1.2.2s0 .2-.2.2-.2-.1-.2-.2 0-.2.2-.2zm-.4-24c-.4 0-.2-.3-.2-.4 0-.1-.1-.4.2-.4.3 0 .2.2.2.4s.1.4-.2.4zm0-13.6c.3 0 .2.2.2.4s.1.3-.2.3c-.3 0-.2-.2-.2-.4s-.1-.3.2-.3zm0 2.6c.3 0 .2.2.2.4s.1.4-.2.4c-.3 0-.2-.2-.2-.4s-.1-.4.2-.4zm-.2 2.9c0-.2.1-.2.2-.2s.2 0 .2.2-.1.2-.2.2-.3-.1-.2-.2zm.2 2.4c.1 0 .2 0 .2.2s-.1.2-.2.2-.2 0-.2-.2 0-.2.2-.2zm-.2 2.2c.1.1.4-.1.4.2 0 .3-.2.2-.4.1s-.4.1-.4-.2c0-.3.2 0 .4-.1zm0 5.3c.2.1.4-.1.4.2 0 .3-.3.2-.4.2-.1 0-.4.1-.4-.2 0-.3.2-.2.4-.2zm-.2 8.3c-.3 0-.2-.2-.2-.3 0-.1-.1-.4.2-.4.3 0 .2.2.2.4s0 .3-.2.3zm.4 22.2c-.1 0-.2 0-.2-.2s.1-.2.2-.2.2 0 .2.2-.1.2-.2.2zm.9 4c0 .3-.2.1-.3.2-.1.1-.3.1-.4-.1-.1-.2.1-.3.2-.3h.1c0-.2 0-.4.3-.3.3.1.1.4.1.5zm0-2.1c0 .1-.2.1-.2.1 0-.4-.6-.3-.4-.8 0-.1-.1-.3.2-.4.3-.1.2.2.2.3 0 .1.1.1.1.1.3.1 0 .4.1.7zm0-22.9c-.1 0-.3.1-.3-.1s0-.3.2-.3c.1 0 .1 0 .1-.1 0-.2 0-.3.3-.2.3.1.1.3.1.3 0 .3-.1.4-.4.4zm.4 5.5c0-.2.1-.3.3-.3.2 0 .4.1.4-.3 0-.1.2-.1.3-.1.1 0 .2.1.2.2v.3c0 .6 0 .6-.6.6-.4 0-.7.1-.6-.4zm0 20.8c-.1 0-.1-.2 0-.2.2-.1.3-.4.5-.5.1 0 .1 0 .2.1v.3c0 .1.1.3-.1.3H45zm1.1 1.4c0 .1-.1.1-.2.1-.2-.2-.5-.3-.6-.5-.1-.2.2-.1.3-.2.2-.1.5.1.5.3.1.1.1.2 0 .3zm0-34.2c-.1 0-.4.1-.4-.2 0-.3.2-.1.4-.2s.4-.1.4.2c0 .3-.3.2-.4.2zm.7 34.3c-.3.1-.3-.1-.4-.4-.1-.3.2-.3.4-.3s.3.1.3.4c0 .3.1.4-.3.3zm.2-1.5c-.3 0-.1-.2-.2-.3-.1-.1-.1-.4.2-.4.3 0 .2.2.2.4s.1.3-.2.3zm0-6c-.3 0-.1-.3-.2-.4-.1-.1-.1-.4.2-.4.3 0 .2.3.2.4 0 .1.2.4-.2.4zm.2-5.3c-.1 0-.4.1-.4-.2 0-.3.2-.2.4-.2h.2c.2.1.5-.2.5.3l.1.1c.2 0 .4 0 .3.3-.1.3-.2.2-.3.1-.1-.1-.5.2-.5-.2s-.1-.2-.3-.2zm.7-4c0-.2.1-.2.3-.2.2 0 .2 0 .2.2s-.1.2-.2.2-.3 0-.3-.2zm.5 7.6c0 .2-.1.2-.2.2s-.2 0-.2-.2.1-.2.2-.2.2.1.2.2zm-.8 2.2c0-.3.3-.1.4-.2.1-.1.4-.1.4.2 0 .3-.3.2-.5.2s-.4.1-.3-.2zm.6 5.4c-.1 0-.2 0-.2-.2s.1-.2.2-.2.2 0 .2.2-.1.3-.2.2zm.5-20c-.1.1-.2.2-.3-.1-.1-.3 0-.2-.2-.2s-.4 0-.3-.2c.1-.2.3-.1.4-.1.1 0 .3-.1.4.1.1.1.1.3 0 .5zm0-7.6c0 .1-.2.2-.2.1-.1-.2-.4-.3-.6-.5v-.2h.3c.5.1.7.3.5.6zm-.1-3.2c.3 0 .2.2.2.3 0 .1.1.4-.2.4-.3 0-.1-.2-.2-.4s-.1-.3.2-.3zm-.1-1.6c-.2-.1 0-.4-.1-.5-.1-.1 0-.2 0-.3 0-.1 0-.2.2-.2s.2.1.2.2 0 .2.1.2c.5.1.2.5.2.6 0 .1-.4.2-.6 0zm.8 32.9c-.3 0-.1-.3-.2-.4.1-.1-.1-.4.2-.4.3 0 .2.3.2.4 0 .1.1.4-.2.4zm.2-6.4c-.3 0-.5-.1-.4-.4-.1-.3 0-.5.3-.5s.4.2.4.4 0 .6-.3.5zm.2-12.5c-.3 0-.1-.2-.2-.4s-.1-.3.1-.3.3.1.3.2v.1s.4 0 .3.3c-.1.3-.4.1-.5.1zm.5 13.4c0-.3.2-.2.4-.2s.3-.1.4.1c.1.2-.1.2-.3.2h-.1c0 .2-.1.4-.3.3-.2-.1-.1-.2-.1-.4zm.7 5.5c-.3 0-.1-.3-.2-.4.1-.2-.1-.4.2-.4.3 0 .2.3.2.4 0 .1 0 .4-.2.4zm.5-3.8c0 .2.1.4-.2.4-.3 0-.1.3-.1.4 0 .1 0 .2-.2.3-.2.1-.2-.1-.2-.2s-.1-.2-.3-.2c-.2 0-.2 0-.2-.2s0-.2.2-.2c.3 0 .3-.4.6-.5 0 0 0-.2.2-.2s.1.3.2.4zm-.2-34.3c-.3 0-.1-.3-.2-.4 0-.3 0-.4.4-.4s.4 0 .4-.3c0-.1.1-.1.2-.1s.1 0 .1.1v.1c-.1.2.2.5-.2.6-.1 0-.1 0-.1.1 0 .5-.4.3-.6.3zm.6 33.8c0-.3.2-.1.4-.2s.3-.1.3.2c0 .3-.2.2-.3.2-.1 0-.5.1-.4-.2zm.7 1.8c0-.2 0-.3-.2-.2-.2.1-.2-.1-.2-.2s.1-.1.2-.1h1.1c.1 0 .2 0 .2.1s0 .2-.1.2-.2.1-.2.2c0 .3-.3.2-.4.2-.1 0-.4.2-.4-.2zm1.1 2.5h-.2c-.1-.3-.3-.4-.5-.6v-.1h.4c.1 0 .3-.1.3.1.1.1.1.4 0 .6zm1.7-3.8h-.4c-.2 0-.5.1-.5-.3s.3-.4.6-.4h.2c.3 0 .6 0 .5.5-.2.2-.3.3-.4.2zm2.1 4.8c0 .3-.3.1-.4.2-.2-.1-.3.1-.4-.1-.1-.2.1-.3.3-.3 0 0 .1 0 .1-.1 0-.3.2-.4.4-.3.2.1 0 .4 0 .6zm-.2-2.5c-.1 0-.2 0-.2-.2s.1-.2.2-.2.2 0 .2.2 0 .2-.2.2zm.3.9c0 .2-.1.2-.2.2s-.2 0-.2-.2.1-.2.2-.2.1 0 .2.2zm.8.6c-.3 0-.2-.3-.2-.4 0-.1-.1-.4.2-.4.3 0 .1.3.2.4 0 .2.2.5-.2.4zm.3-3c-.1 0-.1.2-.1.2l-.3.1c-.1-.3-.6-.4-.4-.9v-.2h-.4c-.1 0-.4.1-.4-.1s-.1-.4.1-.5c.2-.1.5-.1.7 0 .2.2.1.4.1.7h.6c.2 0 .4-.2.5.1.1.3.1.6-.4.6zm-.4-2.5c0-.3.2-.2.4-.2s.3-.1.3.2c0 .3-.2.2-.4.2s-.3.1-.3-.2zm3.3 5.1c-.1 0-.4-.1-.4.2 0 .1 0 .2-.2.2s-.2-.2-.2-.3v-.2c0-.1 0-.4.3-.4.2 0 .4.1.4-.3 0-.1.2-.1.3-.1.1 0 .3.3.3.4 0 .3 0 .6-.5.5zm-.2-4.5c-.3 0-.1-.2-.2-.4s-.1-.4.2-.3c.3.1.2.2.2.3 0 .1.1.4-.2.4zm-.2-3c-.1 0-.3.1-.3-.2 0-.3.2-.2.3-.2.1 0 .4-.1.4.2 0 .3-.2.2-.4.2zm1-4.9c-.1.4-.2.9-.4 1.3-.1.3-.3.6-.4.9.2 0 .2.2.2.3v.6c0 .1 0 .2-.2.2s-.2-.1-.2-.3v-.4c-.8 1.5-2.2 2.6-3.8 3 .2.1.1.2.1.4s.1.4-.2.4c-.3 0-.2-.2-.2-.4v-.3c-.4.1-.9.1-1.3.1h-.5v.2c0 .3 0 .5-.4.4-.3.1-.4-.1-.4-.4v-.2h-2.2v-2c-.3 0-.5 0-.4-.4 0-.1-.1-.3.1-.4.2-.1.2.1.3.3v-2.2c-.1 0-.4.1-.4-.2 0-.3.2-.1.3-.2v-6.5H52c-.3 0-.3-.1-.3-.3v-.3c0-.1-.1-.5.3-.5v-4.4h3.6c1 0 1.9.2 2.8.5 0-.1 0-.3.3-.3s.5 0 .4.4v.2c.5.3.9.7 1.3 1.1l.6.9s.1-.1.2-.1c.3 0 .1.3.2.4.1.1 0 .3-.1.3.7 1.7 1 3.6.9 5.4 0 .6 0 1.2-.1 1.8h.1c.1 0 .4-.1.4.2 0 .3-.2.5-.5.5zm.4 11.7c-.3 0-.2-.2-.2-.3 0-.1-.1-.4.2-.4.3 0 .2.2.2.4s.1.3-.2.3zm0-5.3c-.3 0-.1-.3-.2-.4-.1-.1-.1-.4.2-.4.3 0 .2.2.2.4s.1.4-.2.4zm0-4.8c-.3 0-.1-.3-.2-.4-.1-.1-.1-.3.2-.4.3-.1.2.1.2.3 0 .2 0 .1.1.1.3 0 .4.1.3.4-.1.3-.4-.1-.6 0zm.9 2.6c0 .3.4.3.4.6 0 .1.1.1.2.1s.3 0 .3.2-.3.1-.3.2c-.5 0-.8-.4-.8-.9v-.1c-.1-.2 0-.1.2-.1zm-.3 5.8v-.3c0-.1-.1-.2.1-.3.2-.1.2 0 .2.2 0 .1 0 .1.1.1s.2 0 .2.2-.1.2-.2.2-.2.1-.2.2 0 .3-.2.2c-.2-.1-.1-.2-.2-.3-.1-.1.2-.1.2-.2zm.6 2.9c0 .1-.3 0-.3 0 .2-.4-.6-.3-.3-.7 0-.1.2 0 .3 0 .1 0 .3-.1.3.2 0 .3.2.2 0 .5zm.1-5c-.2 0-.4 0-.4-.3s.1-.5.4-.4c.3.1.4 0 .4.3s-.1.4-.4.4zm-.3-4.9c-.2-.1-.1-.3-.1-.4 0-.7 0-.7.7-.7.3-.1.6 0 .5.5-.1.3-.8.7-1.1.6zm1.4 8.7c-.4.1-.3-.2-.3-.4 0-.4.2-.3.4-.3s.3.2.3.4c.1.3-.1.3-.4.3zm-.3-2.8c0-.3.2-.1.3-.2.1-.1.4-.1.4.2 0 .3-.2.2-.4.2s-.3 0-.3-.2zm.7-2.7v.4c0 .1 0 .2-.1.2s-.2 0-.2-.2 0-.2-.1-.2c-.5-.1-.2-.5-.2-.7 0-.2.4-.1.5-.1.1 0 0 .4.1.6zm0-2.1c0 .1-.3.1-.3 0v-.7c0-.2.2-.1.4-.1h.5c.2 0 .2 0 .2.2s0 .2-.2.2-.6 0-.6.4zm1.1 3.4c0 .1-.1.1-.2.1-.2-.2-.4-.3-.5-.5V65h.4c.1 0 .2-.1.3.1v.5zm.1-2.2c-.2 0-.3.1-.4-.1v-.6c0-.1.1-.1.2-.1s.1 0 .1.1 0 .2.1.2.4 0 .3.2c-.1.2-.2.2-.3.3zm1.5 3.7c0 .1-.2.1-.2.1l-.5-.5c0-.1 0-.1.1-.2h.3c.1 0 .3-.1.4.1-.1.1-.1.3-.1.5zm-.2-2.2H67c-.2 0-.2-.1-.2-.2.2-.3.6-.5.9-.5.3.1.1.3.1.4 0 .1.1.3 0 .3zm.2-8c-.1 0-.4.1-.4-.2 0-.3.2-.1.3-.2.1-.1.4-.1.4.2 0 .3-.2.2-.3.2zm.9 8.7c-.1 0-.2 0-.2-.2s.1-.2.2-.2.2 0 .2.2-.1.2-.2.2zm.6-2.3c-.3.1-.6 0-.8-.2 0-.1 0-.1-.1-.1s-.3-.1-.2-.3c.1-.2.3 0 .3-.1.5-.2.5.4.9.4-.1.2-.1.3-.1.3zm-.4-10.1c-.1 0-.4.1-.4-.2 0-.3.2-.2.4-.3.2-.1.4-.1.4.2 0 .3-.3.3-.4.3zm.2-5c-.3 0-.1-.2-.2-.3-.1-.1-.1-.4.2-.4.3 0 .2.2.2.4s.1.3-.2.3zm.9 1.9c.1 0 .4-.1.4.2 0 .3-.2.2-.3.2-.1 0-.4.1-.4-.2 0-.3.2-.1.3-.2zm-.3 3.9h.3c.2 0 .4.2.4.4 0 .1 0 .1-.1.2s-.2.1-.2.1c-.1-.2-.4-.3-.5-.5 0-.1 0-.2.1-.2zm.7 5.5c0 .1 0 .2-.2.2s-.2-.1-.2-.2 0-.2.2-.2.2 0 .2.2zm-.6 4.7c-.2 0-.2-.1-.2-.2s0-.2.2-.2.2.1.2.2 0 .2-.2.2zm.2-1.9c-.4 0-.3-.2-.3-.4s0-.4.4-.4.4.1.4.4c0 .3-.2.4-.5.4zm.5-4.9c-.2 0-.2-.1-.2-.2s0-.2.2-.2.2.1.2.2 0 .2-.2.2zm76.5-49l.1-7.8h-25.1c0 .3-.2.2-.4.2s-.4.1-.4-.2h-7.2c0 .2-.1.2-.2.2s-.2 0-.2-.2H99.2v.2h.3c.3 0 .4.1.4.4 0 .3-.1.5.3.5.1 0 .1.1.1.2s-.1.2-.2.2-.6.2-.6-.3c-.6-.1-.3-.6-.3-.9h-.6c-.1 0-.1 0-.1-.1V.7H55.9v.2s.2.4-.2.4-.1-.3-.2-.4V.7h-2.3V1c0 .1.1.4-.2.3-.3-.1 0-.4-.1-.5V.6H48c0 .1 0 .2-.2.2s-.2-.1-.2-.2h-7.2v.3c0 .3-.1.4-.4.4-.3 0-.4-.1-.3-.4V.7h-4.5c0 .2-.2.2-.4.2s-.3 0-.4-.2h-4.5c0 .2 0 .3-.3.2-.2 0-.4 0-.4-.2H28v5.6c.2.1.5.4.5.5 0 .3-.3.1-.4.2H28v2.3c.1-.1.2-.2.2-.3 0-.1.2-.1.3.1.1.4 0 .6-.4.6H28v7.2c.2 0 .4-.1.4.2 0 .3-.3-.1-.4-.1h-.1v4.9c.1 0 .1 0 .1.2s0 .2-.1.2v4.5c.2 0 .1.2.1.4s0 .3-.1.3v1.9c.1 0 .1.1.1.2s-.1.1-.1.2v1.9c.2 0 .1.2.1.3 0 .1 0 .3-.1.3v1.2c.1 0 .1 0 .1.2s0 .2-.1.2v.4h.3c.1 0 .2 0 .1.1s0 .2-.1.2c-.2 0-.2.2-.2.4 0 .1 0 .1-.1.1V37c.2 0 .1.3.1.4 0 .1.1.3-.1.4V42c.1 0 .1.1.1.2s.1.4-.1.5v1.1c.1 0 .1.1.1.2s0 .2-.1.2v.4c.1 0 .1 0 .1.2s0 .2-.1.2v1.9c.1 0 .2.1.2.3 0 .2 0 .3-.2.3v7.2c.2.1.1.4.1.6 0 .1 0 .2-.1.2v8.2c.2 0 .5.1.5-.3 0-.1.3-.1.3 0v.7c0 .2-.2.1-.4.1h-.5v23.2H29c0-.1 0-.3.3-.2.3.1.4.1.4.2h29.4v-.2s-.1-.4.2-.4c.3 0 .2.2.2.4v.2h7.6c-.1-.2-.3-.2-.4-.4 0-.1 0-.1.1-.2h.3c.2 0 .4.2.4.4v.2h1.9v-.2c0-.3.1-.4.4-.4.3 0 .4.1.4.3v.3h2v-.2c0-.3.1-.4.4-.3.3.1.3.1.3.4v.2h1.9v-.2c-.1-.3.1-.4.4-.4.3 0 .4.1.4.4v.2h1.9v-.1c0-.3.3-.1.4-.2.2.1.4-.1.4.2H85v-.2c.1 0 .2 0 .3-.1.1 0 .3-.1.4.1v.1h1.9v-.1c0-.3.2-.2.4-.2s.3-.1.3.2v.1h2c0-.1 0-.1.1-.2h.3c.1 0 .3-.1.4.1v.2H93v-.2s-.1-.3.1-.3.2.2.3.2c.2 0 .3.2.3.3h1.9v-.2s-.1-.4.2-.3c.3.1.2.2.2.3v.2h1.9c0-.2.2-.3.4-.2.2.1.4 0 .4.2h4.9c0-.2.2-.2.4-.2s.3.1.3.2H119c0-.1 0-.2.2-.2s.2.1.2.2h28V9.1c-.3 0-.2-.2-.2-.4s-.2-.3 0-.3zm-119-6.5c-.3 0-.1-.2-.2-.3-.1-.1 0-.4.2-.4s.2.2.2.4.1.3-.2.3zM142.6.8c.1 0 .3-.1.4.2.1.3-.2.2-.4.2s-.4.1-.4-.2c0-.3.2-.2.4-.2zm-1.4 65.6c.1 0 .2 0 .2.2s-.1.2-.2.2-.2 0-.2-.2.1-.2.2-.2zM127.1.8c.1 0 .4-.1.4.2 0 .3-.2.2-.4.2s-.3.1-.4-.2c-.1-.3.2-.2.4-.2zm-5.4 4.5c.1 0 .2.1.2.2s0 .2-.2.2-.2-.1-.2-.2 0-.2.2-.2zM119.2 3c.1 0 .4-.1.4.2 0 .3-.2.2-.4.2s-.3.1-.4-.2c-.1-.3.2-.2.4-.2zm-4.1-1.3c0-.3.3-.1.4-.2.1-.1.3-.1.3.1s-.1.2-.2.2h-.1c0 .2-.1.4-.3.3-.2-.1-.1-.2-.1-.4zm.1 5.5c-.3 0-.2-.2-.1-.3.1-.1-.1-.4.2-.4.3 0 .1.2.2.4s0 .3-.3.3zm-1.3-4.1c0-.1.1-.1.2-.1s.2 0 .2.2 0 .2.1.3c.1.1.3 0 .3.2s-.3.1-.4.1c-.1 0-.3.1-.4-.1v-.6zm0 4.9c.2.1.4-.1.4.2 0 .3-.3.1-.4.1-.1 0-.4.1-.4-.2 0-.3.3 0 .4-.1zM110 .8c.2 0 .2.1.2.2s0 .2-.2.2-.2-.1-.2-.2 0-.3.2-.2zm-4.9 5c.1 0 .2 0 .2.2s-.1.2-.2.2-.2 0-.2-.2 0-.3.2-.2zm-1.3-3.1c.1 0 .4-.1.4.2 0 .3-.2.1-.4.2s-.3.1-.3-.2c0-.3.1-.2.3-.2zm-4.9.8c0-.2.1-.4.4-.5.1 0 .2 0 .3.1.1 0 .1.1.1.2-.1.2-.3.5-.5.6-.5-.1-.3-.3-.3-.4zm-.6 1.4c.3 0 .2.3.2.4 0 .1.1.4-.2.4-.3 0-.2-.3-.2-.4 0-.1-.2-.4.2-.4zM97 6.2c0-.1.1-.1.2-.1.1.3.4.3.5.5 0 .1 0 .1-.1.2h-.3c-.2 0-.4-.2-.4-.4 0-.1.1-.2.1-.2zm-1-3.9c.1 0 .2 0 .2.2s-.1.2-.2.2-.2 0-.2-.2.1-.2.2-.2zm0 5.2c.3 0 .2.2.2.4s.1.4-.2.4c-.3 0-.2-.3-.2-.4 0-.1-.1-.4.2-.4zm-1.1-2.2c.2 0 .2.1.2.2s0 .2-.2.2-.2-.1-.2-.2 0-.2.2-.2zm-1.6-3c.2-.1.2.1.2.3 0 .2.1.1.1.1s.3 0 .3.2-.3.1-.4.2c-.1.1-.5.1-.4-.3.1-.2 0-.4.2-.5zm-.1 1.9c.1.1.3-.1.4.2.1.3-.2.2-.3.2-.1 0-.4.1-.4-.2 0-.3.2-.1.3-.2zm-1.1-.4c.2 0 .4-.1.3.2-.1.3-.3.1-.4.2-.1.1-.3.1-.3-.2 0-.3.3-.1.4-.2zm-1.2-1.2c.1 0 .4-.1.3.2-.1.3-.2.2-.3.2-.1 0-.4.1-.4-.2 0-.3.3-.1.4-.2zm-.1 2.3c.3 0 .2.3.2.4 0 .1.1.4-.2.4-.3 0-.1-.3-.2-.4 0-.1-.2-.4.2-.4zm.1 2.9c0 .1 0 .2-.2.2s-.2-.1-.2-.2 0-.2.2-.2.2 0 .2.2zm-.5-4.3c.1 0 .1 0 .2.1v.3c0 .2-.2.4-.4.4-.1 0-.1 0-.2-.1s-.1-.2-.1-.2c.2-.1.2-.4.5-.5zm-.7-2.3c.3 0 .2.2.2.4s.1.3-.2.3c-.3 0-.2-.2-.2-.3 0-.1-.2-.4.2-.4zm-.3 4.9c.3-.1.4.1.4.4 0 .3-.2.3-.4.4-.2.1-.4-.1-.4-.4 0-.3.1-.5.4-.4zm-1.3-3.8c.3 0 .2.2.2.4s.1.3-.2.3c-.3 0-.1-.2-.2-.3-.1-.1-.1-.4.2-.4zm.2 5.5c0 .1 0 .2-.2.2s-.2-.1-.2-.2 0-.2.2-.2.2 0 .2.2zM87 1.2c.1 0 .2 0 .2.2s-.1.2-.2.2-.2 0-.2-.2.1-.2.2-.2zm.2 2.5c0 .2-.1.2-.2.2s-.2 0-.2-.2.1-.2.2-.2.2 0 .2.2zm-1.4 3.1c-.3 0-.1-.2-.2-.3-.1-.1-.1-.4.2-.4.3 0 .2.2.2.4s.1.3-.2.3zm-.5-1.7l.5-.5c.1 0 .1 0 .2.1V5c0 .1.1.3-.1.4h-.6v-.3zm.2 2.1c.3 0 .2.3.2.4 0 .1.1.4-.2.4-.3 0-.1-.3-.2-.4.1-.2-.1-.4.2-.4zm-1.2-2.3c.3 0 .2.3.2.4 0 .1.1.4-.2.4-.3 0-.1-.3-.2-.4.1-.1-.1-.4.2-.4zm-.5 2.7c0-.3 0-.4.4-.4s.4.1.3.4c0 .8-.1.9-.9.7-.3 0-.2-.2-.2-.4.3.1.4 0 .4-.3zm-.6-.4c.2 0 .2.1.2.2V8h-.3c-.3 0-.5-.2-.5-.4 0-.1 0-.2.1-.3.1-.2.3-.1.5-.1zm-.8-2.3c-.3 0-.2-.2-.2-.3 0-.1-.1-.4.2-.4.3 0 .2.2.2.4s.1.3-.2.3zm-.9-1.3c0-.2.2-.1.3-.1 0-.3.1-.5.4-.5.1 0 .2 0 .3.1.1.1.1.2.1.3 0 .1-.1.2-.2.2h-.6v.6c0 .2 0 .1-.1.1s-.2 0-.2-.1v-.6zm-1.4-1.7c.2 0 .4 0 .3.3l.1.1s.3 0 .2.2c-.1.2-.2.1-.4.1s-.4.1-.3-.3c0-.1-.1-.3.1-.4zm.3 5.4c0 .2-.1.2-.2.2s-.2 0-.2-.1.1-.2.2-.2.2 0 .2.1zM79.1.8c.1 0 .2 0 .2.1 0 .2.1.4.3.4.1 0 .1.2-.1.3-.3.1-.6 0-.6-.4V.9c0-.1 0-.1.2-.1zm0 2.7c.3 0 .2.2.2.3 0 .1.1.4-.2.4-.3 0-.2-.2-.3-.4-.1-.2 0-.4.3-.3zm-.6 5c.2-.1.3-.4.5-.5.2-.1.2 0 .2.2v.2c0 .2-.2.4-.4.4-.1 0-.2 0-.2-.1-.1 0-.1-.2-.1-.2zm-.6-6.2c.1 0 .2 0 .2.2s-.1.1-.2.1-.2 0-.2-.2.1-.1.2-.1zm-.6 2.3c.1-.1.2-.2.3.1.1.3 0 .2.2.2s.4 0 .3.2c-.1.2-.3 0-.4.1-.1.1-.3.1-.4-.1v-.5zM74 .7c.3 0 .4.1.4.4 0 .3 0 .4-.4.4s-.4-.1-.3-.4c.1-.3-.1-.4.3-.4zm-1.9 4c.1-.2.3 0 .3-.1s.4 0 .4.2c0 0 0 .1.1.1s.3 0 .3.3-.2.1-.3.1c-.1 0-.4.1-.4-.3 0 0 0-.1-.1-.1-.2 0-.4 0-.3-.2zm.7 2.7c0 .3-.2.1-.4.2s-.3.1-.3-.2c0-.3.2-.2.3-.2.1 0 .4-.1.4.2zm-1.1-1.1c0 .3-.3.2-.4.2-.1 0-.4.1-.4-.2 0-.3.3-.1.4-.2.1.1.4-.1.4.2zm-.8-3.8c0-.2.1-.2.2-.2s.2 0 .2.2-.1.2-.2.2-.2-.1-.2-.2zm.3-1.7c.2 0 .2.1.2.2s-.1.2-.2.2-.2 0-.2-.2 0-.3.2-.2zm-1.4 5.1c.2-.2.4-.4.5-.6 0 0 .2 0 .2.1v.3c0 .5-.2.6-.6.5-.1-.1-.1-.3-.1-.3zm.4.5c.1 0 .4-.1.3.2-.1.3-.2.2-.3.1-.1-.1-.4.1-.4-.2 0-.3.3 0 .4-.1zM68.7.8c.2 0 .4-.1.4.2 0 .3-.2.2-.4.2s-.4.1-.4-.2c0-.3.3-.2.4-.2zm.4 5.1c0 .2-.1.2-.2.2s-.2 0-.2-.2.1-.2.2-.2.2 0 .2.2zm-3.4-5c.1-.2.3-.1.5-.1s.2.2.2.4.1.3-.1.4c-.2.1-.3-.1-.3-.3v-.1c-.3 0-.4-.1-.3-.3zm0 2.6c-.1-.3 0-.5.3-.5s.4.2.4.4 0 .4-.3.4-.5 0-.4-.3zm.7 2.4v.2c0 .2-.2.4-.4.4-.1 0-.2 0-.2-.1-.1-.1-.1-.2-.1-.2.2-.1.3-.4.5-.5.2-.1.2.1.2.2zm-1.6.9c.3 0 .2.2.2.4s.1.3-.2.3c-.3 0-.1-.2-.2-.3-.1-.1-.1-.4.2-.4zm-1.2-6c.2 0 .2.1.2.2s0 .2-.2.2-.2-.1-.2-.2 0-.2.2-.2zm0 5c.3 0 .2.2.2.4s.1.3-.2.3c-.3 0-.1-.2-.2-.3-.1-.1-.1-.5.2-.4zm-1.3-1.2c.1.1.4-.1.4.2 0 .3-.2.2-.4.2s-.3 0-.3-.2.2-.2.3-.2zm-.2 2.2c.3 0 .2.2.2.4s.1.4-.2.4c-.3 0-.1-.3-.1-.4 0-.1-.2-.4.1-.4zM61 .8c.2 0 .1.2.1.3 0 .1-.1.1-.2.1s-.1-.2-.1-.2c0-.2.1-.2.2-.2zm-.6 5c.1-.2.4-.1.5-.1.1 0 .1.3.2.4.1.1.1.3-.2.4-.3.1-.2-.1-.2-.2s0-.1-.1-.1c-.1-.1-.3-.2-.2-.4zM60 7.4c0 .3-.3.2-.4.2-.1 0-.4.1-.4-.2 0-.3.3-.1.4-.2.1-.1.5-.2.4.2zm-.5-5.5c.1 0 .2 0 .2.2s-.1.2-.2.2-.2 0-.2-.2 0-.2.2-.2zm-1.3 3.8c.1 0 .4-.1.4.2 0 .3-.3.1-.4.2-.1.1-.3.1-.4-.2-.1-.3.2-.2.4-.2zm-.4 2.6h.6c.1 0 .1 0 .1.1s0 .2-.1.2h-.6c-.1.1 0-.1 0-.3h-.6c-.1 0-.2 0-.2-.2s.1-.2.2-.2.7-.1.6.4zm-.6-3.7c.1 0 .2 0 .2.2s-.1.2-.2.2-.2-.1-.2-.3c0-.2.1-.1.2-.1zm-.4 2.2c.3 0 .1.2.2.3.1.1.1.4-.2.4-.3 0-.2-.2-.2-.4s-.1-.3.2-.3zm-1-3.8c.2 0 .2.1.2.2s0 .2-.2.2-.2-.1-.2-.2 0-.2.2-.2zm-.2 2.7c.1 0 .4-.1.4.2 0 .3-.2.2-.3.2-.1 0-.4.1-.4-.2 0-.3.1-.1.3-.2zm-1.3-3.8c.1 0 .4-.1.4.2 0 .3-.2.1-.3.2-.1.1-.4.1-.4-.2 0-.3.2-.2.3-.2zm-1.4 1.5c0-.1-.1-.4.2-.3.3.1.1.3.2.4.1.1.1.4-.2.4-.3 0-.1-.4-.2-.5zm-.3 1.9c.3 0 .3.1.3.3 0 .2.1.1.2.1s.2.6.1.7H52.9c.1-.4-.7-.2-.4-.8 0-.1-.2-.3.1-.3zm-.9-1.1c.3 0 .4.1.4.4 0 .3-.1.4-.3.4-.2 0-.5 0-.4-.3-.1-.4 0-.5.3-.5zm-1.1-2.6c.3 0 .4 0 .4.3s-.1.4-.4.4c-.3 0-.4 0-.4-.3s.1-.5.4-.4zm.1 7c0 .2-.1.2-.2.2s-.2 0-.2-.2.1-.2.2-.2.2 0 .2.2zm-1.6-7c.3-.1.4 0 .4.3s-.1.4-.4.4c-.3 0-.4 0-.4-.3s.1-.5.4-.4zm.4 3.1c0 .3-.2.2-.4.2s-.4.1-.3-.2c.1-.3.2-.1.4-.2s.3 0 .3.2zm-1.9.9s0-.1 0 0c0-.7.1-.8.6-.7.1 0 .2 0 .2.2s-.1.2-.2.2c-.3 0-.2.2-.3.3-.1.1.2.5-.2.5s-.1-.3-.1-.5zm-.4 2.5c.1-.2.3-.1.5-.1s.1.2.2.4.1.3-.1.3-.3-.1-.3-.2v-.1s-.4-.1-.3-.3zm-1-1.7c.2 0 .2.1.2.3v.1c.2 0 .4.1.3.3-.1.2-.3.1-.5.1s-.1-.2-.2-.3c-.1-.1 0-.4.2-.5zm-.3 1.9c.1 0 .2 0 .2.2s-.1.2-.2.2-.2 0-.2-.2.1-.1.2-.2zm-2.5-.6c0 .2-.2.3-.2.3-.1.4-.3.4-.6.3-.1 0-.2 0-.2-.2s0-.2.2-.2.2 0 .2-.2c0-.3.2-.3.4-.3 0 .2.2 0 .2.3zm-.8-4.2c.1 0 .1-.1.1-.1s0-.3.2-.3.1.2.1.3c0 .2.1.5-.3.5-.1 0-.3.1-.4-.1-.1-.2.2-.3.3-.3zm-.1 1.8c.3 0 .2.2.2.3 0 .1.1.1.2.1s.1.1.1.2-.1.2-.2.2c-.3 0-.6.1-.5-.5.1 0-.1-.3.2-.3zm-1.1-3.7c.1 0 .2 0 .2.2s0 .2-.2.1-.3 0-.3-.2.1-.1.3-.1zm.2 2.8c0 .2-.1.2-.2.2s-.2 0-.2-.2.1-.2.2-.2.2 0 .2.2zm-.2 2.4c.3 0 .2.2.2.4s.1.4-.2.4c-.3 0-.2-.2-.2-.3 0-.1-.1-.5.2-.5zm-1.3-1.5c.4 0 .3.2.4.4.1.2 0 .4-.3.4s-.5-.1-.5-.4c0-.3.1-.4.4-.4zm-1.6-1.1c.2.1.4-.1.4.2 0 .3-.2.2-.4.2s-.3.1-.3-.2c0-.3.2-.2.3-.2zm.1 2.3c.4-.1.3.2.3.4 0 .4-.2.3-.4.3s-.3-.2-.3-.4c-.1-.4.1-.4.4-.3zm-1.3-1.2c.2 0 .1.2.1.3 0 .1-.1.2-.2.2s-.1-.2-.1-.2c0-.3.1-.3.2-.3zm-1.7-1.5h.3c.1 0 .3-.1.4.1v.6c0 .1-.2.1-.2.1l-.5-.5c-.1-.1-.1-.2 0-.3 0 .1 0 .1 0 0zm.3 2.7c.3-.1.4 0 .4.4s-.1.4-.4.4c-.3 0-.4-.1-.4-.4 0-.3.1-.5.4-.4zm-.2 4.8c.3 0 .2.2.2.4s.1.4-.2.4c-.3 0-.1-.2-.2-.3-.1-.1-.1-.4.2-.5zm.2 13.2c0 .1.1.4-.2.4-.3 0-.2-.2-.2-.3 0-.1-.1-.4.2-.4.3 0 .2.2.2.3zm-.3 40.4c0 .2.1.4-.2.4 0 0-.1 0-.1.1 0 .2 0 .3-.2.3s-.2-.1-.1-.2-.2-.4.2-.5c.1 0 .2 0 .2-.1s0-.3.2-.2c.2.1-.1.1 0 .2zm-3.1 15.4c-.2 0-.4.1-.4.3 0 .1-.2.1-.3-.1-.1-.3 0-.6.4-.6h.3c.1 0 .1.1.1.2s0 .2-.1.2zm.1 2.5c0 .3-.3.2-.4.2-.1 0-.4.2-.4-.2s.3-.1.4-.2c.1-.1.4-.1.4.2zm-1.8.9c.3-.1.2.2.3.3.1.1.1.1.2.1s.1.2.1.3c0 .1-.1.2-.2.2s-.6.1-.5-.5c0-.1-.1-.3.1-.4zm-1.3-6c.1-.1-.1-.4.2-.4.3 0 .2.2.2.4s.1.4-.2.4c-.3 0-.1-.3-.2-.4zm-.4-1.5c0-.1-.1-.4.2-.4.3 0 .2.2.2.4s.1.3-.2.3c-.3 0-.1-.2-.2-.3zm0-3.2c.1-.2-.2-.5.2-.6.4-.1.6 0 .5.5v.1c0 .2.2.6-.4.6-.6 0-.2-.4-.3-.6zm-.3-29.2c.1-.1-.1-.4.2-.4.3 0 .2.3.2.4 0 .1.1.4-.2.4-.3 0-.2-.3-.2-.4zm.2-5.6c.3 0 .2.2.2.4s.1.3-.2.3c-.3 0-.2-.2-.2-.4s-.1-.4.2-.3zm1.3-3.4c.1-.1-.1-.4.2-.4.3 0 .2.3.2.4 0 .1.1.4-.2.4-.3 0-.1-.3-.2-.4zm1.3-2.7c.3 0 .1.3.2.4-.1.2.1.4-.2.4-.3 0-.2-.3-.2-.4 0-.1-.1-.5.2-.4zm-.2-3.8c.1-.1-.1-.3.2-.4.3-.1.1.2.2.3.1.1.4.2.3.6 0 .1.1.2-.1.3-.2.1-.2 0-.2-.2s-.2-.1-.3-.2c-.1-.1-.1-.3-.1-.4zm.4-2.4c0-.1 0-.2.2-.2s.2.1.2.2 0 .2-.2.2-.2-.1-.2-.2zm1.5-6.2c-.1 0-.3.1-.3-.2 0-.3.2-.1.4-.2s.4-.1.4.2c0 .3-.4.1-.5.2zm.3 5.1c0 .3-.2.2-.4.2s-.3.1-.3-.1.2-.2.3-.2c.1 0 .5-.3.4.1zm-.3 2.2c0 .1 0 .1.1.1s.3 0 .3.2-.2.1-.3.1c-.1 0-.4.1-.4-.2 0 0 0-.1-.1-.1s-.3 0-.3-.3.2-.1.2-.1.5-.1.5.3zm.5 19c-.1 0-.1-.1-.1-.2s0-.1.1-.2c.2-.1.5 0 .6.2 0 .1.1.2.1.2v.2s0 .2-.1.2-.2 0-.2-.2-.2-.2-.4-.2zm.2 2.5c0 .2-.1.2-.2.2s-.1-.2-.1-.2.1-.2.2-.2.1.1.1.2zm-.3 1c0-.1.2-.1.2 0 .1.2.3.4.5.5v.2h-.3c-.1 0-.3.1-.4-.1 0-.2-.1-.4 0-.6zm.6 4.3c0 .3-.2.1-.4.2s-.3.1-.3-.2c0-.3.2-.2.3-.2.1 0 .5-.1.4.2zm-.7 2.2c0-.1.1-.1.2-.1.2.2.4.3.5.5v.2H34c-.1 0-.3 0-.3-.1-.1-.2-.1-.4-.1-.5zm.4 12.8v.6c0 .1-.2.1-.2.1l-.5-.5c0-.1 0-.1.1-.2h.3c.1-.1.3-.2.3 0zm-1.1-34.5c.4 0 .4.2.4.4s0 .4-.3.4-.5 0-.4-.4c-.1-.2 0-.4.3-.4zm-.4 23.8c-.3 0-.4-.1-.4-.4 0-.3.1-.4.4-.3.3.1.4.1.4.4 0 .3-.2.3-.4.3zm.1 7c0 .2-.1.2-.2.2s-.2 0-.2-.2.1-.2.2-.2.2 0 .2.2zm.3-9.6c0 .1-.3.1-.3-.1s0-.2-.2-.2-.3 0-.3-.3.3-.1.4-.2c.1-.1.4-.1.4.1.1.2.1.4 0 .7zm-.1-2.7c-.3 0-.1-.3-.2-.4-.1-.1-.1-.4.2-.3.3.1.1.3.2.4.1.1 0 .3-.2.3zm-.3-5.3c-.1 0-.4.1-.4-.2 0-.3.3-.1.4-.2.1.1.4-.1.4.2 0 .3-.2.2-.4.2zm-.3-4.8c-.4.1-.4-.4-.8-.5 0 0 0-.3.2-.2h1c.3 0 .4 0 .4.4s-.1.4-.4.3c-.2-.1-.3-.1-.4 0zm-.8 3.8c-.4 0-.4-.2-.4-.4s0-.4.3-.4.4.1.4.4c0 .3 0 .3-.3.4zm.4 4.7c0 .3-.2.2-.4.2s-.4.1-.4-.2c0-.3.2-.2.4-.2s.4-.2.4.2zm-.3-15.7c.2 0 .3.1.3.2v.1s.4 0 .3.3c-.1.3-.3.1-.5.1s-.1-.2-.2-.4-.1-.3.1-.3zm.3 1.7c0 .1 0 .2-.2.2s-.2-.1-.2-.2 0-.2.2-.2.2.1.2.2zm0 3.5c.3 0 .3.1.3.4 0 .3-.1.4-.4.4-.3.1-.3-.1-.4-.4-.1-.3.2-.4.5-.4zm-.2 3.5c-.2 0-.2-.2-.2-.3 0-.1 0-.1-.1-.1s-.4-.1-.2-.3c.2-.2.3-.1.5-.1s.2.2.2.3v.2c0 .1.1.2-.2.3zm.9-3.9h-.1c-.3-.1-.5-.3-.7-.5 0-.2.1-.2.2-.2H33c.1 0 .2 0 .2.2s0 .2-.1.2-.6-.1-.6.3zm.4-3.1c0-.1 0-.3.2-.3s.2.1.2.2 0 .2-.2.2-.2 0-.2-.1zm-.6-6.2c-.3 0-.2-.3-.2-.4 0-.1-.1-.4.2-.4.3 0 .2.2.2.4s.2.4-.2.4zm-1 2.6c0-.1-.1-.3.1-.3h.6c.1 0 0 .1 0 .2s-.1.1-.1.1h-.6l.1.3c.1 0 .4-.1.3.2-.1.3.2.5-.2.5-.2 0-.2.2-.2.3 0 .1-.1.2-.2.2S31 35 31 35s-.2-.6.3-.7c.1 0 0-.2.1-.3h-.6c-.1 0-.2-.1-.2-.2s0-.2.1-.2h.6zM30 47.9c-.2 0-.2-.1-.2-.2v-.6c0-.1.1-.2.2-.2s.7.8.5 1c-.2.2-.3-.1-.5 0zm.3 2.1c0 .2-.1.2-.2.2s-.2 0-.2-.2.1-.2.2-.2.2 0 .2.2zm0-4.8c-.3.1-.4 0-.4-.4s.2-.3.5-.3.4.1.4.4c0 .3-.3.4-.5.3zm-.4 6.8c.2 0 .4-.1.4.1v.6c0 .1-.2.1-.2.1s-.2 0-.2-.1 0-.2-.1-.2-.3 0-.3-.2.3-.2.4-.3zm.2 1.5c.3 0 .2.2.2.3 0 .1.1.4-.2.4-.3 0-.2-.2-.2-.4s-.1-.2.2-.3zm.1 1.1c.2 0 .1.1.2.2s0 .2.1.2.2.1.2.2-.2.1-.3.1h-.3c-.2-.1-.5.2-.5-.3s.1-.5.6-.4zm-.1 5.7c-.1 0-.2 0-.2-.2s.1-.2.2-.2.2 0 .2.2-.1.3-.2.2zm.2 2.1c0 .2-.2.2-.3.2-.1 0-.1 0-.1.1s-.1.4-.3.2c-.2-.2-.1-.3-.1-.5s.1-.2.3-.2h.2c0 .1.3 0 .3.2zm-1.2-28.8c-.1 0-.3.1-.3-.2 0-.3.2-.2.3-.2.1 0 .4-.1.4.2 0 .3-.3.1-.4.2zm-.1 7.1h.5v.2c-.3.1-.3.4-.5.5-.2.1-.2 0-.2-.2s0-.2-.2-.2-.2 0-.2-.2.2-.1.3-.2c.1.1.2.1.3.1zm.5 24.2h.6c.1 0 .2 0 .2.2s-.1.2-.2.2-.3 0-.2.2v.1c-.1.1-.2.1-.2.1 0-.3-.5-.3-.5-.6s.1-.2.3-.2zm.6 15.8c.2 0 .2 0 .2.2s-.1.2-.2.2-.2 0-.2-.2.1-.2.2-.2zm-.2-10.2c-.3 0-.4-.1-.4-.4 0-.3.1-.4.4-.4.3 0 .4.1.4.4 0 .3-.2.4-.4.4zm.4-13.4c0-.1 0-.2.2-.2s.2.1.2.2 0 .2-.2.2-.2-.1-.2-.2zm.5 6.3c.2-.1.2.1.3.3.1.2.1.1.2.1s.1.2.2.3c.1.1-.1.2-.2.2s-.6.1-.5-.4c-.1-.3-.2-.5 0-.5zm.6 10.7c0 .3-.2.1-.3.2-.1.1-.4.1-.4-.2 0-.3.2-.2.4-.2s.3-.1.3.2zm-.5 2.1c.3 0 .2.2.2.4s.1.3-.2.3c-.3 0-.2-.2-.2-.4s-.1-.3.2-.3zm.3 3.8c-.2 0-.2-.1-.2-.2s0-.2.2-.2.2.1.2.2 0 .2-.2.2zm-.1-26.1c-.1 0-.1-.2 0-.2.2-.1.4-.3.5-.5h.2v.3c0 .1.1.3-.1.4h-.6zm1 24c0-.2.1-.2.2-.2s.2 0 .2.2-.1.2-.2.2-.2 0-.2-.2zm.2-2.4c-.2 0-.2-.1-.2-.2s.1-.2.2-.2.2.1.2.2 0 .2-.2.2zm-.2-2.9c0-.2.1-.2.2-.2s.2 0 .2.2-.1.2-.2.2-.2-.1-.2-.2zm.1-2.1c-.2 0-.1-.2-.1-.3v-.5c0-.1.1-.2.2-.2s.2.1.2.2-.1.5.3.6c.1 0 .1.3 0 .3-.2-.1-.4-.1-.6-.1zm.7-2.4c0 .1-.2.1-.2.1-.2-.2-.4-.4-.6-.5v-.2h.3c.5 0 .7.3.5.6zm0-22.8c-.1 0-.3.1-.4-.1v-.6c0-.1.2-.1.2-.1l.5.5c0 .1 0 .1-.1.2h-.2v.1zm.3 31.2c0-.1-.1-.3.1-.3s.2.1.2.2.1.1.2.1h.5c.5 0 .5.1.5.5 0 .1-.1.2-.2.2s-.1 0-.1-.1c-.1-.5-.5-.3-.8-.3-.3 0-.4 0-.4-.3zm1.6-8.8c0-.3.2-.1.4-.2s.4-.1.3.2c-.1.3-.2.2-.3.2-.1 0-.4.1-.4-.2zm0-10.3h.3c.1 0 .3 0 .3.1v.6c0 .1-.2.1-.2.1-.2-.2-.4-.3-.5-.5 0-.1 0-.2.1-.3zm.7-2.4c-.1.2-.3.1-.5.1-.3 0-.2-.2-.2-.4s-.1-.3.1-.4c.2-.1.2.1.2.3v.1c.4-.1.5.1.4.3zm-.4-2.2c-.1 0-.3 0-.3-.2s.2-.2.3-.2h.6c.1 0 .2 0 .2.2s-.1.2-.2.2h-.6zm.8-8.3c-.1.2-.2.1-.3.1-.1 0 0 0 0 0v.6c0 .2-.1.2-.2.1-.2-.1-.4-.3-.5-.5 0-.1 0-.2.1-.2h.6c0-.2.1-.4-.2-.4-.2 0-.2-.7-.1-.8h.2c.3.2.4.6.4 1.1zM34.6 11c-.1 0-.3 0-.3-.2s.1-.2.2-.2.2 0 .2.2.1.2-.1.2zm.2 2.1c0 .2-.1.2-.2.2s-.2 0-.2-.2.1-.2.2-.2.2 0 .2.2zm-.2 2.4c.3 0 .2.2.2.4s.1.4-.2.4c-.3 0-.2-.2-.2-.3 0-.1-.1-.5.2-.5zm0 2.7c.1 0 .2 0 .2.2s-.1.2-.2.2-.2 0-.2-.2.1-.3.2-.2zm0 12.8c.1 0 .2 0 .2.2s-.1.2-.2.2-.2 0-.2-.2.1-.2.2-.2zm-.2-9.2c0-.2.1-.2.2-.2s.2 0 .2.2-.1.2-.2.2-.3-.1-.2-.2zm.4-.7c-.1 0-.4.1-.4-.2 0-.3.3-.1.4-.2.1-.1.4-.1.4.2 0 .3-.3.2-.4.2zm1 16.3c-.1 0-.2 0-.2.1s0 .4-.3.3c-.3-.1-.1-.3-.1-.4 0-.1-.1-.4.1-.4.2-.1.4-.1.6 0 .1.1.1.2 0 .3l-.1.1zm0-7.2c-.3 0-.2-.2-.2-.4s-.1-.4.2-.4c.3 0 .2.2.2.4s0 .3-.2.4zm-.3 1.8c.1.1.4-.1.4.2 0 .3-.2.2-.4.2s-.4.1-.3-.2c.1-.3.2-.1.3-.2zm-.1 2.6c.1 0 .1 0 .1-.1 0-.2.1-.3.3-.2.2.1.1.3.1.3.1.4 0 .6-.4.5-.1 0-.3.1-.3-.1s0-.3.2-.4zm-.6-29.3c.1 0 .3-.1.4.1v.7s-.1.1-.2 0c-.2-.2-.4-.3-.6-.5-.2-.2 0-.3.4-.3zm-.4 29c.3 0 .4.1.4.4 0 .3-.1.4-.4.4-.3 0-.5 0-.4-.4-.1-.3.1-.4.4-.4zm0 1.5c.1.1.3-.1.4.2.1.3-.2.2-.3.2-.1 0-.1.1-.1.2s-.1.2-.2.2-.2-.2-.2-.3c0-.4 0-.5.4-.5zm-.1 7.9v.3c0 .1-.1.1-.2.1s-.2 0-.2-.1c0-.2-.1-.4-.3-.4-.1 0-.1-.2.1-.3.4-.1.7.1.6.4zm-.8-39.9c.3 0 .2.2.2.4s.1.3-.2.3c-.3 0-.1-.2-.2-.3-.1-.1-.1-.4.2-.4zm-.6 7.9c0-.1-.1-.4.2-.4.3 0 .2.2.2.4s.1.4-.2.4c-.3 0-.1-.3-.2-.4zm0-9.8c.2.1.4-.1.4.2 0 .3-.2.2-.4.2s-.4.1-.3-.2c.1-.3.2-.1.3-.2zm-.6 15.5h.6V17c0-.1-.1-.4.1-.4s.5-.1.5 0c.1.2.1.5 0 .7-.2.2-.4 0-.7.1 0 .1.1.3-.1.3H32c-.1 0-.1-.1 0-.2s.2-.1.3-.1zm-.4-12.1c.2 0 .2.1.2.2s0 .2-.2.2-.2-.1-.2-.2.1-.2.2-.2zm0 2.3c.3 0 .1.3.2.4.1.1.1.4-.2.4-.3 0-.2-.3-.2-.5s0-.4.2-.3zm-.5 3.5c0-.2.2-.1.3-.1v-.6c0-.2 0-.1.1-.1s.2 0 .2.1v.6c0 .2-.2.1-.3.1v.6c0 .2 0 .1-.1.1s-.2 0-.2-.1v-.6zm0 4.4h.3c.1 0 .3-.1.4.1v.6c0 .1-.2.1-.2.1l-.5-.5c-.1-.1-.1-.2 0-.3zm0 7.5c.3-.1.6 0 .6.4v.3c0 .1-.1.2-.2.1s-.2 0-.2-.1c0-.2-.1-.4-.3-.4.1 0 0-.2.1-.3zm-.1 6.2c0 .2-.2.2-.2.2-.1.4-.3.4-.6.4-.1 0-.2 0-.2-.2s0-.2.2-.2.2 0 .2-.1c0-.3.2-.2.4-.2s.2-.1.2.1zm-1-2.2c0-.3.2-.2.3-.2.1 0 .4-.1.4.2 0 .3-.2.2-.4.2s-.3.1-.3-.2zm.4-2.1c-.3 0-.4 0-.4-.4s0-.5.3-.4c.3-.1.4 0 .4.4s0 .4-.3.4zm.3-10.5c0 .1.1.3-.1.4h-.6c-.1 0-.1-.1-.1-.2s0-.2.1-.2.2 0 .2-.1 0-.3.2-.3.3.2.3.4zm-.4-5.3c.1 0 .4-.1.3.2-.1.3-.2.1-.3.1-.1 0-.4.1-.4-.2 0-.3.3-.1.4-.1zm-.3 2.7c.2-.1.4-.3.5-.5h.2v.3c0 .1.1.3-.1.4h-.6v-.2zm.1 9.8c.3 0 .2.2.2.4s.1.4-.2.4c-.3 0-.2-.2-.2-.4s0-.4.2-.4zm-.2 18.1c.3 0 .5 0 .5.3s-.1.4-.4.4c-.3 0-.4 0-.4-.4s.1-.4.3-.3zm-.7-29.1c.2.1.3-.1.4.2.1.3-.3.2-.4.2-.1 0-.4.1-.4-.2 0-.3.3-.1.4-.2zm-.2 9.8c.3 0 .2.2.2.4s.1.4-.2.4c-.3 0-.1-.2-.2-.4s-.1-.4.2-.4zm-.4 4.9c.2 0 .2.1.2.3v.1c.3 0 .4.1.3.4-.1.3-.3.1-.5.1s-.2-.2-.2-.4 0-.5.2-.5zm-.4 10.2h.3c.1 0 .3 0 .3.1v.6c0 .1-.1.1-.2.1-.2-.2-.4-.3-.5-.5 0-.1 0-.2.1-.3-.1 0-.1 0 0 0zm.3 10.1c.3 0 .4.1.4.4v.6c0 .2-.2.2-.2.2 0-.3-.6-.3-.5-.8-.2-.3 0-.4.3-.4zm-.2 4.9c.2 0 .2.2.2.3 0 .1 0 .1.1.2h.1c.2 0 .2.1.2.2s-.2.1-.3.1c-.3 0-.5 0-.4-.5 0 0-.2-.3.1-.3zm-.2 3.2c.1-.2.3-.1.5-.1s.1.2.2.4.1.3-.1.3-.3-.1-.3-.2V54s-.4-.1-.3-.3zm.7 2.3c0 .3-.2.2-.4.2s-.3.1-.3-.2c0-.3.2-.2.3-.2.1 0 .4-.1.4.2zm-.7 3.1v-.6c0-.1.1-.1.2-.1.2.2.4.3.5.5v.2h-.3c-.2.1-.3.1-.4 0zm-.3 12.3c.3-.1.3-.4.5-.5.1 0 .1 0 .2.1v.3c0 .2-.2.4-.4.4-.1 0-.1 0-.2-.1-.2 0-.2-.2-.1-.2zm.7 2.3c0 .3-.3.1-.4.2-.1.1-.4.1-.3-.2.1-.3.3-.1.4-.2.1-.1.3 0 .3.2zm-.6 13c-.2 0-.2-.1-.2-.2s0-.2.2-.2.2.1.2.2 0 .3-.2.2zm.1-9.8c-.3 0-.3-.2-.3-.4 0-.3.2-.4.4-.3.2.1.3.2.3.4.1.4-.1.3-.4.3zm.7 4.2c-.3 0-.1-.2-.2-.4s-.1-.4.2-.3c.3.1.2.2.2.3 0 .1 0 .4-.2.4zm.9 4.2c0 .3-.1.4-.4.3-.1 0-.3.1-.3-.1s-.2-.5.2-.6c.4-.1.1-.3.2-.5s-.1-.3.1-.3.2.1.2.3c0 .2.2.2.3.2.1 0 .2 0 .2.2s0 .2-.1.2c-.5-.2-.5 0-.4.3zm.9 1.8c-.2-.1-.3-.3-.5-.5-.1-.1-.1-.2 0-.3 0 0 .1-.1.2 0h1c.2 0 .2.1.2.2s-.7.8-.9.6zm1-2.1c0-.1.2-.1.2-.1.2.2.4.4.6.5v.2h-.3c-.5 0-.7-.3-.5-.6zm2 1.3c-.3.1-.1.3-.1.4 0 .1.1.3-.1.3s-.3-.1-.3-.2-.1-.1-.2-.1-.2 0-.2.1c-.1.5-.4.2-.6.2-.2 0-.1-.3-.2-.3-.1-.3 0-.5.3-.4.3.1.5-.1.5-.4 0-.1-.1-.3.1-.3s.2 0 .2.2.2.1.4.2.3-.1.3.1.1.2-.1.2zm.2-4.7c0-.3.3-.1.4-.2.2.1.4-.1.4.2 0 .3-.3.2-.4.2-.1 0-.4.1-.4-.2zm.9 1.2c0 .2-.1.2-.2.2s-.2 0-.2-.2.1-.2.2-.2.1 0 .2.2zm-.1 2.8c-.3.1-.4-.1-.4-.4 0-.3.2-.3.5-.3s.4.1.4.4c0 .3-.3.3-.5.3zm.3-4.9c-.2.1-.2-.1-.2-.3 0-.2-.1-.1-.1-.1s-.3 0-.3-.2.3-.1.4-.2c.1-.1.5-.1.4.3-.1.2 0 .5-.2.5zm.1-5c0-.3.2-.2.3-.2.1 0 .4-.1.4.2 0 .3-.2.2-.4.2s-.3 0-.3-.2zm.4 8.4c.1-.1-.1-.3.2-.4.3-.1.2.1.2.3 0 .2 0 0 0 0 .3 0 .4.1.3.4-.1.3-.3.1-.5.1s-.2-.3-.2-.4zm.6 3c-.2.1-.2-.1-.3-.3-.1-.2-.1-.1-.2-.1-.2 0-.1-.2-.2-.3-.1-.1.1-.2.2-.2.3 0 .6-.1.5.4 0 .3.2.5 0 .5zm1.1-3.7c-.3 0-.2-.2-.2-.3 0-.1-.1-.4.2-.4.3 0 .1.2.2.4s0 .2-.2.3zm1.8 3.8c-.2 0-.6.2-.6-.3l-.1-.1c-.3 0-.2-.2-.2-.3 0-.1.2-.1.3-.1.1 0 .4 0 .4.3s.1.2.2.2.2 0 .2.2-.1.1-.2.1zm-.5-2.7c0-.3.2-.5.5-.5.1 0 .2 0 .2.1.1 0 .1.1.1.2-.2.3-.4.5-.7.6-.3-.1-.1-.3-.1-.4zm1.9 1c-.2.1-.3.4-.5.5-.2.1-.2 0-.2-.2v-.2c0-.2.2-.4.4-.4.1 0 .2 0 .2.1.1 0 .1.1.1.2zm-.4-2.1c-.4-.1-.6-.4-.7-.7 0-.1-.1-.4.2-.3.3.1.5-.2.6.2 0 .2.4.1.4.5s-.2.3-.5.3zm-.4-3c0-.3.1-.4.4-.3.3-.1.3.1.4.4.1.3-.2.3-.4.3s-.4-.2-.4-.4zm1.7 6.8c-.2 0-.2 0-.2-.2s.1-.2.2-.2.2 0 .2.2-.1.1-.2.2zm-.2-2.7c-.2 0-.4.1-.4-.2 0-.3.3-.2.4-.2.1 0 .4-.1.4.2 0 .3-.2.2-.4.2zm.4-2.3c0 .1-.1.1-.1.1-.1 0-.3 0-.3-.1.2-.4-.5-.3-.4-.7.1-.4.3 0 .3-.1.3 0 .5.2.5.5.1.1 0 .2 0 .3zm.6-2.2c.2 0 .5-.2.5.2 0 .1 0 .1.1.1s.3 0 .3.2-.2.1-.4.1h-.2c-.2 0-.6.1-.5-.3 0-.1-.1-.3.2-.3zm.3 6c-.3 0-.1-.2-.2-.3-.1-.1-.1-.4.2-.4.3 0 .2.2.2.4s.1.3-.2.3zm.2-2.6h-.6c-.2 0-.2-.1-.2-.2.2-.3.6-.5.9-.5.3.1.1.3.1.3.2.3.1.4-.2.4zm1 3.8c-.4 0-.2-.3-.2-.4 0-.1-.1-.4.2-.4.3 0 .2.3.2.4 0 .1.1.3-.2.4zm.5-2.3h-.1c-.3-.2-.5-.3-.7-.6 0-.4.3-.2.4-.2.1 0 .3-.1.4.1v.7zm.2-2.6c-.2 0-.5.1-.5-.3 0-.1-.1-.1-.2-.1-.3 0-.3-.1-.3-.4 0 0-.1-.2.1-.3.2-.1.2.1.3.2.1.1.3.4.5.5.2.1.2.2.2.3 0 .1 0 .1-.1.1zm-.2-2.3c0 .3-.2.5-.5.5-.1 0-.2 0-.3-.1-.1 0-.1-.1-.1-.2s0-.2.1-.2c.3 0 .4-.1.3-.4-.1-.3.1-.1.2-.1.5.1.3.3.3.5zm1.1 6c0 .1-.2.1-.2.1-.2-.2-.4-.3-.5-.5v-.2h.3c.1 0 .3-.1.3.1.1.1.1.2.1.5zm0-5.2h-.5c-.2 0-.2-.2-.2-.2.3-.1.3-.6.8-.5.2-.1.3.1.3.4 0 .3-.1.3-.4.3zm1.5 6.2c0 .2-.4.1-.5.1-.1 0-.1-.4-.2-.5-.1-.1 0-.3 0-.4 0-.1 0-.2.1-.2s.2 0 .2.2 0 .2.1.2c.6 0 .4.4.3.6zm-.6-3.3c.2-.1.3.1.3.2v.1c.2 0 .4.2.3.4-.1.2-.3.1-.5.1s-.1-.3-.2-.4c-.1-.1-.1-.3.1-.4zm-.1-2.1c0-.3.2-.1.4-.2s.4-.1.3.2c-.1.3-.2.2-.3.2-.1 0-.4.1-.4-.2zm1.7 4.4c-.3 0-.1-.2-.2-.4s-.1-.4.2-.4c.3 0 .2.2.2.3 0 .1.1.4-.2.5zm.5-2.6c-.2 0-.4.1-.4.3 0 .1-.2.1-.3-.1-.1-.3 0-.6.4-.6h.3c.1 0 .1.1.1.2s0 .1-.1.2zm-.2-2.6c-.2.1 0 .5-.4.3-.1-.1-.1-.4-.4-.4-.1 0 0-.2 0-.2.4 0 .3-.6.8-.4 0 0 .3-.2.3.1 0 .3.2.6-.3.6zm1 6.4c-.1 0-.4.1-.4-.2 0-.3.2-.1.4-.2s.4-.1.3.2c-.1.3-.1.1-.3.2zm0-2.6c-.2 0-.4.1-.4-.2 0-.3.2-.2.4-.2s.4-.1.4.2c0 .3-.2.1-.4.2zm1.9 1.2c-.1.3-.4.1-.6.1-.6 0-.7 0-.6-.5.1-.2.3-.4.5-.6.2-.2.1 0 .2 0 .3.3.5.6.5 1zm-.6-3.2c.3 0 .2.2.2.4s.1.4-.2.4c-.3 0-.2-.2-.2-.4s-.1-.4.2-.4zm-.2-2.1c0-.2.1-.2.2-.2s.2 0 .2.2-.1.2-.2.2-.2 0-.2-.2zm2.2 6c0 .3-.7.8-1 .6-.3-.2-.3-.3-.5-.4v-.2c.4 0 .4-.7.8-.5.8 0 .8 0 .7.5zm-.7-2.5c.2 0 .4-.1.4.2 0 .3-.2.2-.4.2s-.3.1-.3-.2c0-.3.2-.1.3-.2zm-.3-2.4c0-.3.2-.2.4-.2s.3-.1.3.2c0 .3-.2.2-.4.2s-.3.1-.3-.2zm1.7 4.4c-.3 0-.2-.2-.2-.4s-.1-.3.2-.3c.3 0 .2.2.2.3 0 .1.1.4-.2.4zm-.2-1.7c0-.1 0-.2.2-.2s.2.1.2.2 0 .2-.2.2-.2-.1-.2-.2zm.3-.9c-.2.1-.2-.1-.2-.3 0-.2-.2-.1-.2-.1s-.3 0-.3-.2.3-.1.4-.2c.1-.1.5-.1.4.3-.1.2.1.4-.1.5zm-.7-2.8c0-.3.3-.1.4-.2.2.1.4-.1.4.2 0 .3-.2.2-.4.2s-.4 0-.4-.2zm1.4 1.2c-.2 0-.2-.1-.2-.2s.2-.1.3-.2h.4c.3-.1.5 0 .4.4 0 .2.1.4-.2.4-.3 0-.6.2-.6-.2 0-.1 0-.2-.1-.2zm.1-2.5c0-.3.2-.1.3-.2.1-.1.4-.1.4.2 0 .3-.2.2-.4.2s-.3.1-.3-.2zm.3 5.6c-.4 0-.3-.2-.3-.5s.1-.4.4-.4c.3 0 .4.2.3.4-.1.2 0 .5-.4.5zm1.3 1.1c-.2 0-.5 0-.4-.3-.1-.3 0-.4.3-.4s.4.1.4.4c0 .3 0 .3-.3.3zm.3-2.5c0 .1 0 .2-.2.2s-.2 0-.2-.2 0-.2-.1-.2c-.3 0-.2-.2-.2-.4s-.1-.3.1-.3.2.2.2.2c.3.2.5.4.4.7zm-.2-3.1c.3 0 .2.2.2.4s.1.4-.2.4c-.3 0-.2-.2-.2-.4s-.1-.4.2-.4zm1.4 6.8c-.2 0-.5.1-.4-.3v-.1c-.3 0-.4-.2-.3-.4.1-.2.3-.1.5-.1s.2 0 .2.2 0 .2.1.2.4-.1.3.2c-.1.3-.3.2-.4.3zm-.2-7.6c-.1-.1-.4 0-.3-.3.1-.3.3-.1.4-.1.1 0 .3-.1.4.1v.7c0 .1-.2.1-.2.1s-.2-.1-.2-.3c0-.2 0-.2-.1-.2zm.4 1.9c.2.1.1.3.1.3.1.4 0 .5-.3.5h-.6c-.3 0-.2-.2-.2-.3.2-.4.6-.6 1-.5zm-.2 3.4c-.3 0-.5 0-.4-.4-.1-.3.1-.4.4-.4.3 0 .4.1.4.4 0 .3-.1.4-.4.4zm1.4 1.3c0 .2-.1.2-.2.2-.3-.2-.5-.6-.5-.9.1-.3.3-.1.3-.1.3-.1.4.1.4.3v.5zm0-3c0 .2-.1.2-.2.2h-.4c-.3 0-.5 0-.5-.4s.2-.3.5-.3h.2c.3-.2.5 0 .4.5zm-.1-2c-.3 0-.2-.2-.2-.3 0-.1-.1-.4.2-.4.3 0 .2.2.2.4s.1.2-.1.2l-.1.1zm.6.7c-.2-.1-.1-.3-.1-.5s.1-.2.2-.2c.6-.1.6-.1.6.6v.4c0 .2 0 .2-.2.2s-.3 0-.2-.2c.1-.2-.1-.4-.3-.3zm.6 3.1c-.4.1-.4-.1-.4-.4 0-.3.2-.4.4-.4s.4.1.4.4c0 .3 0 .3-.4.4zm1.5 1.4c0 .1-.2.1-.2.1-.1-.2-.4-.3-.5-.5 0-.1 0-.1.1-.2h.3c.1 0 .3-.1.3.1v.5zm0-3c-.1.2-.3.1-.5.1s-.1-.2-.2-.4-.1-.3.1-.3.3.1.3.2c0 0 0 .1.1.1.2-.1.4-.1.3.1l-.1.2zm0-1.9c0 .1-.4.1-.6 0-.2-.1-.1-.1-.1-.2 0-.3.4 0 .4-.3s-.1-.4.1-.5c.2-.1.3-.1.3 0 0 .4.3.3.6.3s.3-.1.3.2c0 .3-.1.2-.3.2-.2 0-.5-.2-.6.2l-.1.1zm.9 1.7c0 .2-.1.2-.2.2s-.2 0-.2-.2.1-.2.2-.2.2 0 .2.2zm.3 1.6l-.1.1c-.2-.2-.5-.3-.6-.5-.1-.2.2-.3.4-.3s.3-.1.4.1c0 .2-.1.4-.1.6zm.3-3c-.1 0-.2 0-.2.2s0 .4-.2.3c-.2-.1-.2-.3-.2-.5s-.1-.3.1-.4c.2-.1.4-.1.6 0 .1.1.1.3-.1.4zm0-2.6c.3 0 .2.3.2.4 0 .1.1.4-.2.4-.3 0-.2-.2-.2-.4s-.2-.4.2-.4zm.8 6.8c-.1 0-.3.1-.3-.2 0-.3.2-.2.4-.2s.4-.1.4.2c0 .3-.4.1-.5.2zm1-4.9c-.1 0-.1 0-.1.1 0 .2-.1.2-.2.2s-.2-.1-.2-.2-.2-.2-.3-.1c-.3 0-.4-.1-.3-.5 0 0-.1-.3.1-.2.2.1.5-.2.6.2.1.4.3.1.5.2s.3-.1.3.1-.3.2-.4.2zm.4 3.8c-.3 0-.1-.3-.2-.4-.1-.1-.1-.4.2-.4.3 0 .2.2.2.4s.1.4-.2.4zm.4-2.2c-.2 0-.2-.1-.2-.3v-.1c-.3 0-.4-.2-.3-.4.1-.2.3-.1.5-.1s.1.3.2.4c.1.1 0 .4-.2.5zm.1-3c.1.3 0 .4-.4.4s-.4-.2-.4-.4 0-.4.3-.4.6 0 .5.4zm.8.7c.4 0 .3.2.3.4s-.2.3-.4.3c-.3 0-.4-.2-.3-.4.1-.2.2-.3.4-.3zm.3 2.8c0 .3-.3.1-.4.2-.1.1-.3.1-.3-.2 0-.3.3-.1.4-.2.1-.1.3-.1.3.2zm0 2.7c-.1.2-.3.1-.5.1s-.1-.2-.2-.4-.1-.3.1-.3.3.1.2.2c-.1.1 0 .1 0 .1.3 0 .5 0 .4.3zm1-1c-.3 0-.1-.3-.2-.4.1-.2-.1-.4.2-.4.3 0 .1.3.2.4.1.1.1.4-.2.4zm0-3.4c.3 0 .2.3.2.4 0 .1.1.4-.2.4-.3 0-.1-.3-.2-.4.1-.2-.1-.5.2-.4zm.3-1.5c-.5 0-.5 0-.5-.4 0-.1-.1-.3.1-.4.2-.1.2.1.3.3.1.2.1.1.2.1s.1.2.2.3c.1.1-.2.1-.3.1zm1 6c-.3.1-.4-.1-.4-.4 0-.3.2-.3.5-.3s.4.1.4.4c0 .3-.3.3-.5.3zm-.2-5.6c.2 0 .2.1.2.2s.2.1.3.1c.1 0 .2.1.2.2s-.1.1-.2.2c-.5.1-.6 0-.6-.4-.1-.1-.2-.3.1-.3zm.3 2.6c.1 0 .3-.2.3.1 0 .3-.2.2-.3.2-.1 0-.1.1-.1.2s-.1.2-.2.2-.1-.1-.1-.2c-.1-.3-.2-.6.4-.5zm1 1.9c-.3 0-.4-.1-.3-.4-.1-.3 0-.4.4-.4s.3.2.3.4 0 .4-.4.4zm.3-2.3c-.2.1-.2-.1-.3-.3-.1-.2-.1-.1-.2-.1s-.1-.2-.2-.3c-.1-.1.1-.2.2-.2.5 0 .5 0 .5.4.1.2.2.4 0 .5zm.5-2.8c0 .2-.2.1-.3.1-.1 0-.4.1-.4-.2 0-.1 0-.2-.1-.2s-.3 0-.3-.2.3 0 .3-.1c.2 0 .4 0 .4.2 0 .1 0 .1.1.1.3 0 .3.2.3.3zm.7 6.2c-.1 0-.4.1-.4-.2 0-.3.3-.1.4-.2.1.1.4-.1.4.2 0 .3-.3.1-.4.2zm0-4.9c-.1-.1-.4.1-.4-.2 0-.3.3-.2.4-.2.1 0 .4-.1.4.2 0 .3-.2.1-.4.2zm1.1 3.8c-.4 0-.3-.2-.3-.4s0-.4.4-.4.4.1.4.4c0 .3-.1.4-.5.4zm.3-4.9c-.1.1-.3.1-.3-.1 0-.1 0-.2-.1-.3-.1-.1-.3 0-.3-.2s.2-.1.4-.1.3-.1.3.1.2.4 0 .6zm1.1 6.4c-.3 0-.2-.2-.2-.4s-.1-.4.2-.4c.3 0 .2.3.2.4 0 .1.1.3-.2.4zm1.1-1.5c-.3 0-.1-.3-.2-.4-.1-.1-.1-.4.2-.4.3 0 .2.3.2.4 0 .1.1.4-.2.4zm.3-2.6c-.2 0-.2-.1-.2-.2s0-.2.2-.2.2.1.2.2 0 .2-.2.2zm0-2.3c-.3 0-.1-.3-.2-.4-.1-.1-.1-.4.2-.4.3 0 .1.3.2.4 0 .1.2.4-.2.4zm1.2.4c.3 0 .1.2.2.4s.1.4-.2.3c-.3-.1-.2-.2-.2-.3 0-.1 0-.4.2-.4zm0 2.6c.3 0 .2.2.2.3 0 .1.1.4-.2.4-.3 0-.1-.2-.2-.4s0-.3.2-.3zm.6 2.8c-.2.1-.3.3-.5.5h-.2v-.4c0-.1-.1-.2.1-.3h.6v.2zm1.2-3.3c0 .1-.2.1-.3.1-.2-.2-.4-.3-.5-.5 0-.1-.1-.2.1-.3h.3c.1 0 .4-.1.4.1v.6zm-.5-2.5c-.3 0-.4-.1-.4-.4 0-.3 0-.5.4-.4.3-.1.4 0 .4.4s0 .4-.4.4zm1.3 6.3c-.3 0-.1-.2-.2-.3-.1-.1-.1-.4.2-.4.3 0 .2.2.2.4s.1.3-.2.3zm.2-5.4c0 .2-.2.1-.3.2-.1.1-.3.1-.4-.1-.1-.2.1-.2.3-.2h.1c0-.2.1-.4.3-.3.2.1 0 .2 0 .4zm1.1 4c-.1 0-.4.1-.4-.2 0-.3.3-.1.4-.2.2.1.4-.1.4.2 0 .3-.2.1-.4.2zm0-2.6c-.1 0-.4.1-.4-.2 0-.3.2-.2.4-.2s.4-.1.4.2c0 .3-.2.1-.4.2zm-.3-2.5c0-.3.2-.2.4-.2s.4-.1.4.2c0 .3-.2.2-.4.2s-.4.1-.4-.2zm1.7.6s-.1 0 0 0c-.1.2-.2.4-.4.3-.2-.1-.1-.3-.1-.5s.2-.1.4-.2.3-.1.3.2c0 .3-.1.2-.2.2zm1.2 4.8c-.3 0-.2-.2-.2-.4s-.1-.4.2-.4c.3 0 .2.2.2.4s0 .4-.2.4zm0-2.6c-.3 0-.1-.2-.2-.4s-.1-.4.2-.4c.3 0 .2.3.2.4 0 .1.1.4-.2.4zm.6-2.7c-.1.2-.4.1-.6.1-.2 0-.1-.3-.2-.4-.1-.1-.1-.3.1-.4.2-.1.3.1.3.3 0 0 0 .1.1.1.2-.1.3.1.3.3zm1 6.4h-.3c-.2 0-.4-.2-.4-.4 0-.1 0-.1.1-.2s.2-.1.2-.1c.1.3.4.3.5.5 0 .1 0 .2-.1.2 0 0-.1 0 0 0zm.1-3.1c0 .5-.1.6-.5.5-.1 0-.2 0-.2-.1s0-.2.1-.2c.3 0 .2-.2.3-.4.1-.2-.1-.3.2-.3.3 0 .2.2.2.3-.1 0-.2.1-.1.2zm-.2-1.8c-.2.1-.3-.1-.3-.2v-.1s-.4 0-.3-.3c.1-.3.3-.1.5-.1s.1.2.2.3c.1.1.1.4-.1.4zm1.2 3.8c-.3 0-.2-.2-.2-.3 0-.1-.1-.4.2-.4.3 0 .2.2.2.4s0 .3-.2.3zm0-5.2c-.3 0-.1-.3-.2-.4.1-.2-.1-.4.2-.4.3 0 .1.3.2.4.1.1 0 .4-.2.4zm1.3 3.7c-.1 0-.4.2-.4-.2s.3-.1.4-.2c.2.1.4-.1.4.2 0 .3-.4.2-.4.2zm1.1 1.5c-.3 0-.4-.2-.3-.4-.1-.4.2-.3.4-.3.4 0 .3.2.3.4s-.3.3-.4.3zm.2-5.2c-.3 0-.1-.3-.2-.4.1-.1-.1-.4.2-.4.3 0 .2.3.2.4 0 .1 0 .4-.2.4zm1.7 1.3c-.1.2-.3.1-.4.1-.1 0-.3.1-.4-.1v-.6c0-.1.2-.1.2-.1s.2 0 .2.1 0 .2.1.2.3.2.3.4zm1 3.9h-.2c-.1-.2-.3-.4-.5-.5v-.2h.3c.1 0 .3-.1.4.1v.6zm-.2-2.2c-.3 0-.1-.2-.2-.4s-.1-.3.2-.3c.3 0 .2.2.2.3 0 .1.1.4-.2.4zm-.1-3.2c0-.1 0-.2.2-.2s.2.1.2.2 0 .2-.2.2-.3-.1-.2-.2zm1.5 3.9c-.1 0-.3.1-.3-.2 0-.3.2-.2.3-.2.1 0 .4-.1.4.2 0 .3-.3.2-.4.2zm3.5 1.6c-.3 0-.2-.2-.2-.4s-.1-.3.2-.3c.3 0 .2.2.2.4s.1.2-.2.3zm.6-2.6c0 .2 0 .4-.2.3-.2-.1-.2-.3-.2-.4 0-.1 0-.3.2-.3s.2.2.2.4zm0-2.4c-.1.1-.3 0-.3 0 .1-.4-.7-.3-.3-.7.1-.1.2 0 .3 0 .1 0 .3-.1.4.1 0 .2 0 .4-.1.6zm2.3 2.4c-.1-.1-.4.1-.4-.2 0-.3.3-.2.4-.2.1 0 .4-.1.4.2 0 .3-.3.1-.4.2zm.3-2.7c-.2 0-.2-.1-.2-.2s0-.2.2-.2.2.1.2.2-.1.2-.2.2zm.8 6.4c-.1 0-.4.1-.3-.2.1-.3.2-.2.3-.2.1 0 .4-.1.4.2 0 .3-.3.1-.4.2zm.3-5c-.2.1-.4.1-.6 0 0 0-.1-.2 0-.2.2-.1.4-.3.5-.5h.2v.3c-.1.2 0 .4-.1.4zm1.6 1.5c0 .1-.1.1-.2.1-.2-.2-.4-.3-.5-.5v-.2h.4c.1 0 .2-.1.3.1v.5zm.8 3.4c-.1 0-.3.1-.3-.2 0-.3.2-.2.3-.2.1 0 .4-.1.4.2 0 .3-.4.2-.4.2zm1.3-6c-.3 0-.1-.2-.2-.4s-.1-.4.2-.4c.3 0 .2.3.2.4 0 .1.1.5-.2.4zm1.4 3.8c-.1 0-.2 0-.2-.2s.1-.2.2-.2.2 0 .2.2 0 .2-.2.2zm2.5-2.7c-.1-.1-.4.1-.4-.2 0-.3.3-.2.4-.2.1 0 .4-.1.4.2 0 .3-.2.2-.4.2zm2.5 5.4c-.3 0-.1-.3-.2-.4.1-.2-.1-.4.2-.4.3 0 .2.3.2.4 0 .1.1.4-.2.4zm1.3-1.6c-.1 0-.4.1-.4-.2 0-.3.2-.1.4-.2s.3-.1.3.2c0 .3-.2.2-.3.2zm.2-2.2c-.3 0-.1-.3-.2-.4-.1-.1-.1-.3.2-.3.3 0 .1.3.2.4.1.1 0 .3-.2.3zm1.1 3.8c-.3 0-.1-.3-.2-.4.1-.2-.1-.4.2-.4.3 0 .2.3.2.4 0 .1.1.4-.2.4zm.2-2.8c-.1 0-.4.1-.3-.2.1-.3.2-.1.3-.2.1-.1.4-.1.4.2 0 .3-.3.3-.4.2zm1.3 1.2c-.1 0-.2 0-.2-.2s.1-.2.2-.2.2 0 .2.2-.1.2-.2.2zm-.2-2.4c0-.2.1-.2.2-.2s.2 0 .2.2-.1.2-.2.2-.2-.1-.2-.2zm2.7 2.8c-.2 0-.4 0-.4-.3s0-.5.4-.4c.3-.1.5 0 .5.3s-.3.4-.5.4zm-.2-2.6c-.3 0-.2-.2-.2-.4s-.1-.4.2-.4c.3 0 .2.2.2.4s.1.4-.2.4zm2 3.6c0 .1-.1.2-.2.2s-.6.1-.5-.5c0-.1-.1-.3.1-.3s.2.2.3.3c.1.1.1.1.2.1s.1.1.1.2zm4.8.2c-.1 0-.3 0-.3-.2s0-.2.2-.2.2 0 .2.2.1.2-.1.2zm.9-1.6c-.1 0-.3.1-.4-.2-.1-.3.2-.2.4-.2s.4-.1.4.2c0 .3-.3.2-.4.2zm1.3 1.6c-.1 0-.2 0-.2-.2s0-.3.2-.3.2 0 .2.2 0 .3-.2.3zm.2-5c-.1-.1-.4.1-.4-.2 0-.3.2-.2.4-.2s.4-.1.4.2c0 .3-.3.1-.4.2zm2.6 5.3c-.4 0-.3-.2-.3-.5s.1-.3.4-.3c.3 0 .3.2.4.5.1.3-.2.3-.5.3zm.3-5.4h-.3c-.1 0-.3.1-.4-.1-.1-.2-.1-.4 0-.6 0 0 .2-.1.2 0 .1.2.3.4.5.5.1.1.2.2 0 .2zm2.2 5.4c-.3 0-.1-.3-.2-.4.1-.2-.1-.4.2-.4.3 0 .2.3.2.4 0 .1.1.4-.2.4zm.2-5.3c-.1 0-.4.1-.4-.2 0-.3.2-.1.3-.2.1-.1.4-.1.4.2 0 .3-.2.2-.3.2zm1.4 1.1h-.3c-.5 0-.6-.3-.5-.6 0-.1.1-.1.2-.1.2.2.4.4.6.5.1 0 .2.2 0 .2zm2.1 0c-.1 0-.2 0-.2-.2s.1-.2.2-.2.2 0 .2.2 0 .3-.2.2zm1.5 1.6c-.2 0-.1-.1-.2-.3-.1-.2 0-.2.2-.2s.1.1.2.2 0 .3-.2.3zm.2-2.3c-.3 0-.4-.1-.4-.4 0-.3 0-.4.4-.4s.4.2.4.4 0 .5-.4.4zm1.2-1.6c-.1 0-.3.1-.3-.2 0-.3.2-.2.4-.2s.4-.1.4.2c0 .3-.4.3-.5.2zm1.1 6.5c-.1 0-.4.1-.4-.2 0-.3.2-.1.3-.2.1-.1.4-.1.4.2 0 .3-.2.2-.3.2zm.6-8h-31.5c-.1.1-.2.1-.3 0H52.1v.6c0 .1.1.2-.1.3-.2.1-.2-.1-.2-.2s-.4-.4-.5-.6l-.1-.1h-1.3c-.1.1-.3 0-.5 0h-2.5v.1c0 .1.1.3-.2.3-.3 0-.2-.2-.2-.4V79h-.9c-.2.1-.4.1-.6 0h-3.4v.3c0 .1-.1.1-.2.1-.2-.1-.4-.2-.5-.4h-2 .1c.5 0 .3.3.3.6s-.1.3-.3.2c-.2-.1-.5.2-.5-.2s-.2-.3-.4-.3c0 .2.1.4-.3.5-.2 0-.1.2-.1.4s.1.3-.1.3-.4.1-.6 0c-.2-.1-.1-.3.1-.3s.2-.1.2-.2-.1-.5.1-.6c.2-.1.4 0 .7 0V79h-1.9s.1.4-.2.4c-.3 0-.1-.2-.2-.4s-.1-.3.2-.3h.1v-12c-.2 0-.3-.1-.2-.5 0-.1-.2-.3.1-.3h.1V14.8H36c-.2 0-.2-.1-.2-.2s0-.2.2-.2h.1V9.9H36c-.3 0-.1-.2-.2-.4s-.1-.4.2-.4h.1v-.3H66v-.1c-.2 0-.4 0-.3-.3.1-.3.3-.1.5-.1s.1.2.2.4v.1h1.9v-.4h-.2c-.2 0-.5.1-.5-.1s-.3-.6.3-.7c.1 0 0-.5.3-.3s.1.4.1.6v.5c.1 0 .3-.1.3.1v.4H71c0-.1.1-.1.2-.1s.2 0 .2.1h2.3c0-.1 0-.1-.1-.1s-.4 0-.3-.2c.1-.2.3-.1.4-.1.3 0 .5.2.4.5h7.2c.1-.1.2-.1.3-.1.1 0 .3-.1.3.1h2c.1-.2.2-.1.3-.1.1 0 .3-.1.3.1h1.9c0-.2.3 0 .4-.1.1-.1.3-.1.4.1h1.5v-.3c0-.1 0-.2.2-.2s.2 0 .2.1c0 .3.2.2.4.2s.3 0 .4.1h2c0-.1.1-.1.2-.1s.2 0 .2.1h2.3c0-.1.1-.1.2-.1s.2 0 .2.1h2.2s.1-.1.2-.1.2 0 .2.1h41.7l-.3 70.2zm.4-67.8c-.3 0-.2-.2-.2-.4s-.1-.4.2-.4c.3 0 .2.2.2.4s.1.4-.2.4zm1.4-1.6c.2 0 .2.1.2.2s0 .2-.2.2-.2-.1-.2-.2.1-.1.2-.2zm.5 77.4h-.7l-.1-.1c.2-.2.3-.5.5-.6.2-.1.3 0 .3.4.1 0 .3.3 0 .3zm.1-5l-.4.1c.1-.4-.5-.4-.4-.7.1-.3.3-.1.4-.1.3-.1.5.1.6.4 0 .2 0 .3-.1.4l-.1-.1zm.9 1.1c-.3 0-.1-.2-.2-.4s-.1-.4.2-.3c.3.1.2.2.2.3 0 .1.2.5-.1.5l-.1-.1zm.3-2.6c-.1.2-.2.4-.4.3-.2-.1-.1-.4-.1-.5 0-.1.2-.1.4-.2s.3-.1.4.1c.1.2-.1.4-.2.4l-.1-.1zm.3-57.8c-.1-.4 0-.6.4-.6h.3c.1 0 .1.1.1.2s0 .2-.1.2c-.3 0-.4.1-.4.3 0 .1-.2.2-.3 0v-.1zm.8 56.6c-.3.1-.4 0-.5-.3-.1-.3.2-.4.4-.4s.4 0 .4.3-.1.6-.3.5v-.1zm3 7.6c-.1.2-.4.1-.5.1-.1 0-.1-.2-.2-.3v-.1c0-.1-.1-.3.1-.3s.2.2.2.3c0 .1 0 .1.1.1.2.1.4.2.3.4V87z"/>
        <g fill="#B61E4B">
            <path d="M53.9 22.4c.4-.2.5-.5.5-.5 0-.4-1.1-1.5-3-1.5-4.6 0-15.2 10.9-24.3 22-.7.8-1.6 1.7-2.7 2.7-1.2-1.7-3.7-2.7-6.3-2.7C12.7 42.4.5 48.9.5 55.1c0 4.7 4.3 4.9 6.4 4.9 3.1 0 6.5-1.7 9.8-3.9-3.2 4.7-5.3 8.3-5.3 9.6.5 1.1 1.3 2.1 2.4 2.8.3-.1.6-.3.8-.6 13.6-24.8 30.2-39.7 39.3-45.5zM5 57.9c-.3-.4-.5-.8-.5-1.2 0-4.8 8.4-11 14.9-11.7 1 .9 1.6 1.8 2 2.8C16 52.3 9.1 57.2 5 57.9z"/>
            <path d="M178.5 34.4c-.4-.2-.8-.2-1.2.1-5.9 3.4-17 7.5-25.1 9.8-.7-.1-1.4-.1-2.1-.1-1.9.3-3.9.8-5.7 1.4h-.4c0-.4-.1-.9-.8-.6-5.2 1.9-18.7 7.2-27.6 7.6h-.4c.6-1.8 3-4 3.7-4.9.2-.3.2-.7 0-.9-.1-.1-2.4-2.8-3.8-1.9-.1.1-14.5 8.4-20.2 9.1 1-2 5.5-5.3 8.1-7.1.3-.2.4-.6.2-.9l-.6-.6v-.1c-.8-.8-1.8-1.3-2.9-1.5-.1 0-14 4.1-20.8 4.4-.5 0-1.3.1-2.1.1-.2-.2-.4-.5-.6-.6-.5-.8-1.4-1.2-2.3-1.1-.8 0-1.4.7-1.5 1.5 0 .8.4 1.5 1 1.9.3.4.7.8 1.2 1-.2 3.5-3.9 7.8-7.8 8-.3 0-.5-.1-.8-.2-.2-.4-.4-.9-.4-1.4-.1-2.5 1.7-5.8 4.5-9.3 17.5-8.6 35-19.6 34.9-23.7-.1-.6-.5-1.2-1-1.5-1-1.2-2.5-1.9-4.1-1.9-5.2.2-23 12.8-32.1 23.8C55.4 51 42.5 56.1 34.7 56.5c-.9.1-1.9-.1-2.7-.6-.2-.3-.4-.8-.4-1.2 0-.6.1-1.1.3-1.6 2.7 2 7.9 1.1 11.8-.7 1.6-.7 5.2-2.5 5.1-4.8-.1-1-.6-1.8-1.3-2.4-1.4-1.5-3.4-2.3-5.5-2.2-3.4.2-14 4.1-13.8 10 .1 1.6.8 3 2 4 1.7 1.7 4 2.7 6.4 2.7 6.4-.3 16.5-3.8 26.9-8.5-.7 1.4-1.1 2.9-1.1 4.5 0 1.7.8 3.4 2.1 4.5 1.1 1.3 2.6 2 4.3 2.1 5 0 9.4-5.9 9.2-10.1v-.5c.9 0 1.8 0 2.8-.1 4.2-.4 8.3-1.1 12.4-2.1-1.1 1.3-2 2.6-1.9 3.8.1 1.1.6 2 1.4 2.7.9 1.1 2.2 1.6 3.6 1.5 3.4-.2 10.3-3.4 15.3-6v.5c0 1 .5 2 1.3 2.6.8 1 2.3 1.6 4.5 1.5 4.1-.2 12-2.6 19.8-5-.4.7-.6 1.5-.6 2.2 0 1 .5 1.9 1.3 2.5.7.8 1.7 1.4 2.8 1.6-1.7.5-3.3 1.1-4.9 1.8-.3.1-.5.4-.4.6v.1c.2.3.5.6.8.8.4.5 1.7 1.8 3 1.3 6.9-2.6 13.9-4.8 20.7-5.1 1.9-.1 4.9 0 6.2.6v.2c0 .3 0 .6-.1.8-.5-.5-1.2-.7-2-.7-5.9-.5-17.8 2.4-22.8 5.9-1.5 1.1-2.3 2.2-2.3 3.2.1.8.5 1.6 1.2 2.1.8 1.1 2.7 2.1 6.3 1.9 8.3-.4 23.3-6.5 23.1-11.7-.1-.9-.5-1.6-1.2-2.1-1.6-2-6.2-3.1-11.2-2.9-.4 0-.9.1-1.3.1 2.2-1.2 3.7-2.6 3.6-4.1-.1-.6-.4-1.1-.9-1.4-.4-.5-.9-.9-1.4-1.1.2-.2.3-.7-.5-1.2 7.9-2.4 17.8-5.5 23.2-8.6 1.5-1.1-.6-3.1-1.3-3.5zm-79.1-9.5c-2.9 3.1-10.5 8.3-19.6 13.5 7-6.2 15-11.6 19.6-13.5zM44.1 46.1h1.5c-.3.8-1.7 2-4.2 3.1-2.4 1.1-5.1 1.7-7.8 1.6 3-2.5 6.6-4.2 10.5-4.7zM144.9 68c-.7.1-1.5 0-2.2 0 .3-.9 1-1.6 1.8-2.1 4.3-3.1 15-6.1 20.8-6-3.5 3.7-13.9 7.9-20.4 8.1zm-2.8-13.2c-.7.1-1.4 0-2-.2-.1-2.3 5.6-5.5 9.7-6.3 2.1-.4 3.8-.4 4.7.2.2.2.5.3.7.4-.8 2.4-7.9 5.7-13.1 5.9z"/>
        </g>
    </g>
</svg>
